solid Exported from Blender-3.5.1
facet normal -0.995328 -0.000000 -0.096548
outer loop
vertex 0.133369 0.133368 6.298993
vertex 0.749664 0.749665 -0.054465
vertex 0.749664 -0.749663 -0.054465
endloop
endfacet
facet normal -0.995328 0.000000 -0.096548
outer loop
vertex 0.133369 0.133368 6.298993
vertex 0.749664 -0.749663 -0.054465
vertex 0.133369 -0.133370 6.298993
endloop
endfacet
facet normal 0.000000 0.991575 0.129536
outer loop
vertex 1.000000 1.000001 -0.054465
vertex -1.000000 1.000001 -0.054465
vertex -0.170006 0.170005 6.298993
endloop
endfacet
facet normal 0.000000 0.991575 0.129536
outer loop
vertex 1.000000 1.000001 -0.054465
vertex -0.170006 0.170005 6.298993
vertex 0.170006 0.170005 6.298993
endloop
endfacet
facet normal -0.991575 0.000000 0.129536
outer loop
vertex -1.000000 1.000001 -0.054465
vertex -1.000000 -0.999999 -0.054465
vertex -0.170006 -0.170007 6.298993
endloop
endfacet
facet normal -0.991575 0.000000 0.129536
outer loop
vertex -1.000000 1.000001 -0.054465
vertex -0.170006 -0.170007 6.298993
vertex -0.170006 0.170005 6.298993
endloop
endfacet
facet normal 0.000000 -0.995328 -0.096549
outer loop
vertex -0.133369 0.133368 6.298993
vertex -0.749664 0.749665 -0.054465
vertex 0.749664 0.749665 -0.054465
endloop
endfacet
facet normal 0.000000 -0.995328 -0.096549
outer loop
vertex -0.133369 0.133368 6.298993
vertex 0.749664 0.749665 -0.054465
vertex 0.133369 0.133368 6.298993
endloop
endfacet
facet normal 0.991575 0.000000 0.129536
outer loop
vertex 1.000000 -0.999999 -0.054465
vertex 1.000000 1.000001 -0.054465
vertex 0.170006 0.170005 6.298993
endloop
endfacet
facet normal 0.991575 0.000000 0.129536
outer loop
vertex 1.000000 -0.999999 -0.054465
vertex 0.170006 0.170005 6.298993
vertex 0.170006 -0.170007 6.298993
endloop
endfacet
facet normal 0.000000 -0.991575 0.129536
outer loop
vertex -1.000000 -0.999999 -0.054465
vertex 1.000000 -0.999999 -0.054465
vertex 0.170006 -0.170007 6.298993
endloop
endfacet
facet normal 0.000000 -0.991575 0.129536
outer loop
vertex -1.000000 -0.999999 -0.054465
vertex 0.170006 -0.170007 6.298993
vertex -0.170006 -0.170007 6.298993
endloop
endfacet
facet normal -0.000000 0.000000 -1.000000
outer loop
vertex -0.749664 -0.749663 -0.054465
vertex -1.000000 -0.999999 -0.054465
vertex -1.000000 1.000001 -0.054465
endloop
endfacet
facet normal 0.000000 0.000000 -1.000000
outer loop
vertex -0.749664 -0.749663 -0.054465
vertex -1.000000 1.000001 -0.054465
vertex -0.749664 0.749665 -0.054465
endloop
endfacet
facet normal 0.000000 0.000000 -1.000000
outer loop
vertex 0.749664 -0.749663 -0.054465
vertex 1.000000 -0.999999 -0.054465
vertex -1.000000 -0.999999 -0.054465
endloop
endfacet
facet normal 0.000000 0.000000 -1.000000
outer loop
vertex 0.749664 -0.749663 -0.054465
vertex -1.000000 -0.999999 -0.054465
vertex -0.749664 -0.749663 -0.054465
endloop
endfacet
facet normal 0.000000 0.000000 -1.000000
outer loop
vertex -0.749664 0.749665 -0.054465
vertex -1.000000 1.000001 -0.054465
vertex 1.000000 1.000001 -0.054465
endloop
endfacet
facet normal 0.000000 0.000000 -1.000000
outer loop
vertex -0.749664 0.749665 -0.054465
vertex 1.000000 1.000001 -0.054465
vertex 0.749664 0.749665 -0.054465
endloop
endfacet
facet normal -0.000000 0.000000 -1.000000
outer loop
vertex 0.749664 0.749665 -0.054465
vertex 1.000000 1.000001 -0.054465
vertex 1.000000 -0.999999 -0.054465
endloop
endfacet
facet normal 0.000000 0.000000 -1.000000
outer loop
vertex 0.749664 0.749665 -0.054465
vertex 1.000000 -0.999999 -0.054465
vertex 0.749664 -0.749663 -0.054465
endloop
endfacet
facet normal 0.000000 0.000000 1.000000
outer loop
vertex 0.133369 0.133368 6.298993
vertex 0.170006 0.170005 6.298993
vertex -0.170006 0.170005 6.298993
endloop
endfacet
facet normal 0.000000 0.000000 1.000000
outer loop
vertex 0.133369 0.133368 6.298993
vertex -0.170006 0.170005 6.298993
vertex -0.133369 0.133368 6.298993
endloop
endfacet
facet normal 0.000000 0.000000 1.000000
outer loop
vertex 0.133369 -0.133370 6.298993
vertex 0.170006 -0.170007 6.298993
vertex 0.170006 0.170005 6.298993
endloop
endfacet
facet normal -0.000021 0.000000 1.000000
outer loop
vertex 0.133369 -0.133370 6.298993
vertex 0.170006 0.170005 6.298993
vertex 0.133369 0.133368 6.298993
endloop
endfacet
facet normal 0.000000 0.000000 1.000000
outer loop
vertex -0.133369 0.133368 6.298993
vertex -0.170006 0.170005 6.298993
vertex -0.170006 -0.170007 6.298993
endloop
endfacet
facet normal 0.000021 0.000000 1.000000
outer loop
vertex -0.133369 0.133368 6.298993
vertex -0.170006 -0.170007 6.298993
vertex -0.133369 -0.133370 6.298993
endloop
endfacet
facet normal 0.000000 0.000000 1.000000
outer loop
vertex -0.133369 -0.133370 6.298993
vertex -0.170006 -0.170007 6.298993
vertex 0.170006 -0.170007 6.298993
endloop
endfacet
facet normal 0.000000 0.000000 1.000000
outer loop
vertex -0.133369 -0.133370 6.298993
vertex 0.170006 -0.170007 6.298993
vertex 0.133369 -0.133370 6.298993
endloop
endfacet
facet normal 0.000000 0.995328 -0.096548
outer loop
vertex 0.133369 -0.133370 6.298993
vertex 0.749664 -0.749663 -0.054465
vertex -0.749664 -0.749663 -0.054465
endloop
endfacet
facet normal 0.000000 0.995328 -0.096548
outer loop
vertex 0.133369 -0.133370 6.298993
vertex -0.749664 -0.749663 -0.054465
vertex -0.133369 -0.133370 6.298993
endloop
endfacet
facet normal 0.995328 -0.000000 -0.096548
outer loop
vertex -0.133369 -0.133370 6.298993
vertex -0.749664 -0.749663 -0.054465
vertex -0.749664 0.749665 -0.054465
endloop
endfacet
facet normal 0.995328 0.000000 -0.096548
outer loop
vertex -0.133369 -0.133370 6.298993
vertex -0.749664 0.749665 -0.054465
vertex -0.133369 0.133368 6.298993
endloop
endfacet
endsolid Exported from Blender-3.5.1
