solid Exported from Blender-3.5.1
facet normal 0.000000 0.000000 1.000000
outer loop
vertex 0.666496 0.666496 0.089370
vertex -0.666496 0.666496 0.089370
vertex -0.666496 -0.666496 0.089370
endloop
endfacet
facet normal 0.000000 0.000000 1.000000
outer loop
vertex 0.666496 0.666496 0.089370
vertex -0.666496 -0.666496 0.089370
vertex 0.666496 -0.666496 0.089370
endloop
endfacet
facet normal 0.000000 -1.000000 0.000000
outer loop
vertex 1.000000 -1.000000 -1.000000
vertex 1.000000 -1.000000 1.000000
vertex -1.000000 -1.000000 1.000000
endloop
endfacet
facet normal 0.000000 -1.000000 0.000000
outer loop
vertex 1.000000 -1.000000 -1.000000
vertex -1.000000 -1.000000 1.000000
vertex -1.000000 -1.000000 -1.000000
endloop
endfacet
facet normal -1.000000 0.000000 0.000000
outer loop
vertex -1.000000 -1.000000 -1.000000
vertex -1.000000 -1.000000 1.000000
vertex -1.000000 1.000000 1.000000
endloop
endfacet
facet normal -1.000000 0.000000 0.000000
outer loop
vertex -1.000000 -1.000000 -1.000000
vertex -1.000000 1.000000 1.000000
vertex -1.000000 1.000000 -1.000000
endloop
endfacet
facet normal 0.000000 0.000000 -1.000000
outer loop
vertex -1.000000 1.000000 -1.000000
vertex 1.000000 1.000000 -1.000000
vertex 1.000000 -1.000000 -1.000000
endloop
endfacet
facet normal 0.000000 0.000000 -1.000000
outer loop
vertex -1.000000 1.000000 -1.000000
vertex 1.000000 -1.000000 -1.000000
vertex -1.000000 -1.000000 -1.000000
endloop
endfacet
facet normal 1.000000 0.000000 0.000000
outer loop
vertex 1.000000 1.000000 -1.000000
vertex 1.000000 1.000000 1.000000
vertex 1.000000 -1.000000 1.000000
endloop
endfacet
facet normal 1.000000 0.000000 0.000000
outer loop
vertex 1.000000 1.000000 -1.000000
vertex 1.000000 -1.000000 1.000000
vertex 1.000000 -1.000000 -1.000000
endloop
endfacet
facet normal 0.000000 1.000000 0.000000
outer loop
vertex -1.000000 1.000000 -1.000000
vertex -1.000000 1.000000 1.000000
vertex 1.000000 1.000000 1.000000
endloop
endfacet
facet normal 0.000000 1.000000 0.000000
outer loop
vertex -1.000000 1.000000 -1.000000
vertex 1.000000 1.000000 1.000000
vertex 1.000000 1.000000 -1.000000
endloop
endfacet
facet normal 0.000000 0.000000 1.000000
outer loop
vertex 0.811833 -0.811833 1.000000
vertex -0.811833 -0.811833 1.000000
vertex -1.000000 -1.000000 1.000000
endloop
endfacet
facet normal 0.000000 0.000000 1.000000
outer loop
vertex 0.811833 -0.811833 1.000000
vertex -1.000000 -1.000000 1.000000
vertex 1.000000 -1.000000 1.000000
endloop
endfacet
facet normal 0.000000 0.000000 1.000000
outer loop
vertex 0.811833 0.811833 1.000000
vertex 0.811833 -0.811833 1.000000
vertex 1.000000 -1.000000 1.000000
endloop
endfacet
facet normal 0.000000 0.000000 1.000000
outer loop
vertex 0.811833 0.811833 1.000000
vertex 1.000000 -1.000000 1.000000
vertex 1.000000 1.000000 1.000000
endloop
endfacet
facet normal 0.000000 0.000000 1.000000
outer loop
vertex -0.811833 -0.811833 1.000000
vertex -0.811833 0.811833 1.000000
vertex -1.000000 1.000000 1.000000
endloop
endfacet
facet normal 0.000000 0.000000 1.000000
outer loop
vertex -0.811833 -0.811833 1.000000
vertex -1.000000 1.000000 1.000000
vertex -1.000000 -1.000000 1.000000
endloop
endfacet
facet normal 0.000000 0.000000 1.000000
outer loop
vertex -0.811833 0.811833 1.000000
vertex 0.811833 0.811833 1.000000
vertex 1.000000 1.000000 1.000000
endloop
endfacet
facet normal 0.000000 0.000000 1.000000
outer loop
vertex -0.811833 0.811833 1.000000
vertex 1.000000 1.000000 1.000000
vertex -1.000000 1.000000 1.000000
endloop
endfacet
facet normal 0.000000 -1.000000 0.000000
outer loop
vertex 0.811833 0.811833 1.000000
vertex -0.811833 0.811833 1.000000
vertex -0.811833 0.811833 0.599771
endloop
endfacet
facet normal 0.000000 -1.000000 0.000000
outer loop
vertex 0.811833 0.811833 1.000000
vertex -0.811833 0.811833 0.599771
vertex 0.811833 0.811833 0.599771
endloop
endfacet
facet normal 0.000000 1.000000 0.000000
outer loop
vertex -0.811833 -0.811833 1.000000
vertex 0.811833 -0.811833 1.000000
vertex 0.811833 -0.811833 0.599771
endloop
endfacet
facet normal 0.000000 1.000000 0.000000
outer loop
vertex -0.811833 -0.811833 1.000000
vertex 0.811833 -0.811833 0.599771
vertex -0.811833 -0.811833 0.599771
endloop
endfacet
facet normal 1.000000 0.000000 0.000000
outer loop
vertex -0.811833 0.811833 1.000000
vertex -0.811833 -0.811833 1.000000
vertex -0.811833 -0.811833 0.599771
endloop
endfacet
facet normal 1.000000 0.000000 0.000000
outer loop
vertex -0.811833 0.811833 1.000000
vertex -0.811833 -0.811833 0.599771
vertex -0.811833 0.811833 0.599771
endloop
endfacet
facet normal -1.000000 0.000000 0.000000
outer loop
vertex 0.811833 -0.811833 1.000000
vertex 0.811833 0.811833 1.000000
vertex 0.811833 0.811833 0.599771
endloop
endfacet
facet normal -1.000000 0.000000 0.000000
outer loop
vertex 0.811833 -0.811833 1.000000
vertex 0.811833 0.811833 0.599771
vertex 0.811833 -0.811833 0.599771
endloop
endfacet
facet normal 0.000000 -1.000000 0.000000
outer loop
vertex 0.666496 0.666496 0.599771
vertex -0.666496 0.666496 0.599771
vertex -0.666496 0.666496 0.089370
endloop
endfacet
facet normal 0.000000 -1.000000 0.000000
outer loop
vertex 0.666496 0.666496 0.599771
vertex -0.666496 0.666496 0.089370
vertex 0.666496 0.666496 0.089370
endloop
endfacet
facet normal 0.000000 0.000000 1.000000
outer loop
vertex 0.666496 -0.666496 0.599771
vertex -0.666496 -0.666496 0.599771
vertex -0.811833 -0.811833 0.599771
endloop
endfacet
facet normal 0.000000 0.000000 1.000000
outer loop
vertex 0.666496 -0.666496 0.599771
vertex -0.811833 -0.811833 0.599771
vertex 0.811833 -0.811833 0.599771
endloop
endfacet
facet normal 0.000000 0.000000 1.000000
outer loop
vertex 0.666496 0.666496 0.599771
vertex 0.666496 -0.666496 0.599771
vertex 0.811833 -0.811833 0.599771
endloop
endfacet
facet normal 0.000000 0.000000 1.000000
outer loop
vertex 0.666496 0.666496 0.599771
vertex 0.811833 -0.811833 0.599771
vertex 0.811833 0.811833 0.599771
endloop
endfacet
facet normal 0.000000 0.000000 1.000000
outer loop
vertex -0.666496 -0.666496 0.599771
vertex -0.666496 0.666496 0.599771
vertex -0.811833 0.811833 0.599771
endloop
endfacet
facet normal 0.000000 0.000000 1.000000
outer loop
vertex -0.666496 -0.666496 0.599771
vertex -0.811833 0.811833 0.599771
vertex -0.811833 -0.811833 0.599771
endloop
endfacet
facet normal 0.000000 0.000000 1.000000
outer loop
vertex -0.666496 0.666496 0.599771
vertex 0.666496 0.666496 0.599771
vertex 0.811833 0.811833 0.599771
endloop
endfacet
facet normal 0.000000 0.000000 1.000000
outer loop
vertex -0.666496 0.666496 0.599771
vertex 0.811833 0.811833 0.599771
vertex -0.811833 0.811833 0.599771
endloop
endfacet
facet normal -1.000000 0.000000 0.000000
outer loop
vertex 0.666496 -0.666496 0.599771
vertex 0.666496 0.666496 0.599771
vertex 0.666496 0.666496 0.089370
endloop
endfacet
facet normal -1.000000 0.000000 0.000000
outer loop
vertex 0.666496 -0.666496 0.599771
vertex 0.666496 0.666496 0.089370
vertex 0.666496 -0.666496 0.089370
endloop
endfacet
facet normal 1.000000 0.000000 0.000000
outer loop
vertex -0.666496 0.666496 0.599771
vertex -0.666496 -0.666496 0.599771
vertex -0.666496 -0.666496 0.089370
endloop
endfacet
facet normal 1.000000 0.000000 0.000000
outer loop
vertex -0.666496 0.666496 0.599771
vertex -0.666496 -0.666496 0.089370
vertex -0.666496 0.666496 0.089370
endloop
endfacet
facet normal 0.000000 1.000000 0.000000
outer loop
vertex -0.666496 -0.666496 0.599771
vertex 0.666496 -0.666496 0.599771
vertex 0.666496 -0.666496 0.089370
endloop
endfacet
facet normal 0.000000 1.000000 0.000000
outer loop
vertex -0.666496 -0.666496 0.599771
vertex 0.666496 -0.666496 0.089370
vertex -0.666496 -0.666496 0.089370
endloop
endfacet
endsolid Exported from Blender-3.5.1
