solid Exported from Blender-3.5.1
facet normal 0.447214 -0.894427 0.000000
outer loop
vertex -0.145443 -0.705421 -0.410842
vertex -0.145443 -0.559977 -0.119955
vertex -0.145443 -0.145443 0.709113
endloop
endfacet
facet normal 0.000000 -0.894427 0.447214
outer loop
vertex -1.000000 -1.000000 -1.000000
vertex 1.000000 -1.000000 -1.000000
vertex 0.145443 -0.705421 -0.410842
endloop
endfacet
facet normal 0.000000 -0.894427 0.447213
outer loop
vertex -0.145443 -0.705421 -0.410842
vertex -0.145443 -0.145443 0.709113
vertex -1.000000 -1.000000 -1.000000
endloop
endfacet
facet normal 0.000000 -0.894427 0.447214
outer loop
vertex -1.000000 -1.000000 -1.000000
vertex 0.145443 -0.705421 -0.410842
vertex -0.145443 -0.705421 -0.410842
endloop
endfacet
facet normal 0.000000 -0.894427 0.447214
outer loop
vertex 1.000000 -1.000000 -1.000000
vertex 0.145443 -0.145443 0.709113
vertex -0.145443 -0.145443 0.709113
endloop
endfacet
facet normal 0.000000 -0.894427 0.447214
outer loop
vertex -0.145443 -0.145443 0.709113
vertex -0.145443 -0.559977 -0.119955
vertex 0.145443 -0.559977 -0.119955
endloop
endfacet
facet normal 0.000000 -0.894427 0.447213
outer loop
vertex 0.145443 -0.559977 -0.119955
vertex 0.145443 -0.705421 -0.410842
vertex 1.000000 -1.000000 -1.000000
endloop
endfacet
facet normal -0.000000 -0.894427 0.447213
outer loop
vertex 1.000000 -1.000000 -1.000000
vertex -0.145443 -0.145443 0.709113
vertex 0.145443 -0.559977 -0.119955
endloop
endfacet
facet normal -0.894427 0.000000 0.447214
outer loop
vertex -0.145443 -0.145443 0.709113
vertex -0.145443 0.145443 0.709113
vertex -1.000000 1.000000 -1.000000
endloop
endfacet
facet normal -0.894427 -0.000000 0.447214
outer loop
vertex -1.000000 1.000000 -1.000000
vertex -0.705421 0.145443 -0.410842
vertex -0.559978 0.145443 -0.119955
endloop
endfacet
facet normal -0.894427 0.000000 0.447214
outer loop
vertex -0.559978 -0.145443 -0.119955
vertex -0.705421 -0.145443 -0.410842
vertex -1.000000 -1.000000 -1.000000
endloop
endfacet
facet normal -0.894427 0.000000 0.447214
outer loop
vertex -0.145443 -0.145443 0.709113
vertex -1.000000 1.000000 -1.000000
vertex -0.559978 0.145443 -0.119955
endloop
endfacet
facet normal -0.894427 0.000000 0.447214
outer loop
vertex -0.559978 -0.145443 -0.119955
vertex -1.000000 -1.000000 -1.000000
vertex -0.145443 -0.145443 0.709113
endloop
endfacet
facet normal -0.894427 0.000000 0.447214
outer loop
vertex -0.559978 0.145443 -0.119955
vertex -0.559978 -0.145443 -0.119955
vertex -0.145443 -0.145443 0.709113
endloop
endfacet
facet normal -0.894427 0.000000 0.447214
outer loop
vertex -0.705421 0.145443 -0.410842
vertex -1.000000 1.000000 -1.000000
vertex -1.000000 -1.000000 -1.000000
endloop
endfacet
facet normal -0.894427 0.000000 0.447214
outer loop
vertex -0.705421 0.145443 -0.410842
vertex -1.000000 -1.000000 -1.000000
vertex -0.705421 -0.145443 -0.410842
endloop
endfacet
facet normal 0.000000 0.000000 -1.000000
outer loop
vertex -0.145443 0.145443 -1.000000
vertex -0.145443 -0.145443 -1.000000
vertex -1.000000 -1.000000 -1.000000
endloop
endfacet
facet normal 0.000000 0.000000 -1.000000
outer loop
vertex 1.000000 1.000000 -1.000000
vertex 1.000000 -1.000000 -1.000000
vertex 0.145443 -0.145443 -1.000000
endloop
endfacet
facet normal -0.000000 0.000000 -1.000000
outer loop
vertex 1.000000 1.000000 -1.000000
vertex 0.145443 -0.145443 -1.000000
vertex 0.145443 0.145443 -1.000000
endloop
endfacet
facet normal 0.000000 0.000000 -1.000000
outer loop
vertex -0.145443 0.145443 -1.000000
vertex -1.000000 -1.000000 -1.000000
vertex -1.000000 1.000000 -1.000000
endloop
endfacet
facet normal 0.000000 0.000000 -1.000000
outer loop
vertex 1.000000 1.000000 -1.000000
vertex 0.145443 0.145443 -1.000000
vertex -0.145443 0.145443 -1.000000
endloop
endfacet
facet normal 0.000000 0.000000 -1.000000
outer loop
vertex -0.145443 0.145443 -1.000000
vertex -1.000000 1.000000 -1.000000
vertex 1.000000 1.000000 -1.000000
endloop
endfacet
facet normal 0.000000 0.000000 -1.000000
outer loop
vertex 1.000000 -1.000000 -1.000000
vertex -1.000000 -1.000000 -1.000000
vertex -0.145443 -0.145443 -1.000000
endloop
endfacet
facet normal 0.000000 0.000000 -1.000000
outer loop
vertex 1.000000 -1.000000 -1.000000
vertex -0.145443 -0.145443 -1.000000
vertex 0.145443 -0.145443 -1.000000
endloop
endfacet
facet normal 0.894427 0.000000 0.447214
outer loop
vertex 0.705421 -0.145443 -0.410842
vertex 1.000000 -1.000000 -1.000000
vertex 1.000000 1.000000 -1.000000
endloop
endfacet
facet normal 0.894427 0.000000 0.447214
outer loop
vertex 0.705421 -0.145443 -0.410842
vertex 1.000000 1.000000 -1.000000
vertex 0.705421 0.145443 -0.410842
endloop
endfacet
facet normal 0.894427 0.000000 0.447214
outer loop
vertex 1.000000 -1.000000 -1.000000
vertex 0.705421 -0.145443 -0.410842
vertex 0.559978 -0.145443 -0.119955
endloop
endfacet
facet normal 0.894427 0.000000 0.447214
outer loop
vertex 0.559978 0.145443 -0.119955
vertex 0.705421 0.145443 -0.410842
vertex 1.000000 1.000000 -1.000000
endloop
endfacet
facet normal 0.894427 0.000000 0.447214
outer loop
vertex 0.145443 -0.145443 0.709113
vertex 1.000000 -1.000000 -1.000000
vertex 0.559978 -0.145443 -0.119955
endloop
endfacet
facet normal 0.894427 0.000000 0.447214
outer loop
vertex 0.559978 0.145443 -0.119955
vertex 1.000000 1.000000 -1.000000
vertex 0.145443 0.145443 0.709113
endloop
endfacet
facet normal 0.894427 0.000000 0.447214
outer loop
vertex 0.145443 -0.145443 0.709113
vertex 0.559978 -0.145443 -0.119955
vertex 0.559978 0.145443 -0.119955
endloop
endfacet
facet normal 0.894427 0.000000 0.447214
outer loop
vertex 0.559978 0.145443 -0.119955
vertex 0.145443 0.145443 0.709113
vertex 0.145443 -0.145443 0.709113
endloop
endfacet
facet normal -0.000000 0.894427 0.447214
outer loop
vertex 0.145443 0.145443 0.709113
vertex 1.000000 1.000000 -1.000000
vertex 0.145443 0.559977 -0.119955
endloop
endfacet
facet normal 0.000000 0.894427 0.447213
outer loop
vertex 1.000000 1.000000 -1.000000
vertex 0.145443 0.705421 -0.410842
vertex 0.145443 0.559977 -0.119955
endloop
endfacet
facet normal 0.000000 0.894427 0.447214
outer loop
vertex -0.145443 0.705421 -0.410842
vertex 0.145443 0.705421 -0.410842
vertex 1.000000 1.000000 -1.000000
endloop
endfacet
facet normal 0.000000 0.894427 0.447214
outer loop
vertex -1.000000 1.000000 -1.000000
vertex -0.145443 0.145443 0.709113
vertex 0.145443 0.145443 0.709113
endloop
endfacet
facet normal 0.000000 0.894427 0.447214
outer loop
vertex 0.145443 0.145443 0.709113
vertex 0.145443 0.559977 -0.119955
vertex -0.145443 0.559977 -0.119955
endloop
endfacet
facet normal 0.000000 0.894427 0.447214
outer loop
vertex -0.145443 0.705421 -0.410842
vertex 1.000000 1.000000 -1.000000
vertex -1.000000 1.000000 -1.000000
endloop
endfacet
facet normal 0.000000 0.894427 0.447213
outer loop
vertex -1.000000 1.000000 -1.000000
vertex 0.145443 0.145443 0.709113
vertex -0.145443 0.559977 -0.119955
endloop
endfacet
facet normal 0.000000 0.894427 0.447213
outer loop
vertex -1.000000 1.000000 -1.000000
vertex -0.145443 0.559977 -0.119955
vertex -0.145443 0.705421 -0.410842
endloop
endfacet
facet normal 0.000000 0.000000 -1.000000
outer loop
vertex 0.559978 0.145443 -0.119955
vertex 0.559978 -0.145443 -0.119955
vertex 0.145443 -0.145443 -0.119955
endloop
endfacet
facet normal 0.000000 0.000000 -1.000000
outer loop
vertex 0.559978 0.145443 -0.119955
vertex 0.145443 -0.145443 -0.119955
vertex 0.145443 0.145443 -0.119955
endloop
endfacet
facet normal 0.000000 0.000000 -1.000000
outer loop
vertex -0.145443 -0.145443 -0.119955
vertex -0.559978 -0.145443 -0.119955
vertex -0.559978 0.145443 -0.119955
endloop
endfacet
facet normal 0.000000 0.000000 -1.000000
outer loop
vertex -0.145443 -0.145443 -0.119955
vertex -0.559978 0.145443 -0.119955
vertex -0.145443 0.145443 -0.119955
endloop
endfacet
facet normal 0.000000 -1.000000 0.000000
outer loop
vertex 0.145443 0.145443 -0.282115
vertex 0.145443 0.145443 -0.410842
vertex 0.705421 0.145443 -0.410842
endloop
endfacet
facet normal 0.000000 -1.000000 -0.000000
outer loop
vertex 0.705421 0.145443 -0.410842
vertex 0.559978 0.145443 -0.119955
vertex 0.145443 0.145443 -0.119955
endloop
endfacet
facet normal 0.000000 -1.000000 0.000000
outer loop
vertex 0.145443 0.145443 -0.282115
vertex 0.705421 0.145443 -0.410842
vertex 0.145443 0.145443 -0.119955
endloop
endfacet
facet normal 0.000000 -1.000000 0.000000
outer loop
vertex -0.559978 0.145443 -0.119955
vertex -0.705421 0.145443 -0.410842
vertex -0.145443 0.145443 -0.410842
endloop
endfacet
facet normal 0.000000 -1.000000 0.000000
outer loop
vertex -0.559978 0.145443 -0.119955
vertex -0.145443 0.145443 -0.410842
vertex -0.145443 0.145443 -0.119955
endloop
endfacet
facet normal 0.000000 0.000000 1.000000
outer loop
vertex 0.145443 -0.145443 -0.410842
vertex 0.705421 -0.145443 -0.410842
vertex 0.705421 0.145443 -0.410842
endloop
endfacet
facet normal 0.000000 0.000000 1.000000
outer loop
vertex 0.145443 -0.145443 -0.410842
vertex 0.705421 0.145443 -0.410842
vertex 0.145443 0.145443 -0.410842
endloop
endfacet
facet normal 0.000000 0.000000 1.000000
outer loop
vertex -0.705421 0.145443 -0.410842
vertex -0.705421 -0.145443 -0.410842
vertex -0.145443 -0.145443 -0.410842
endloop
endfacet
facet normal 0.000000 0.000000 1.000000
outer loop
vertex -0.705421 0.145443 -0.410842
vertex -0.145443 -0.145443 -0.410842
vertex -0.145443 0.145443 -0.410842
endloop
endfacet
facet normal 0.000000 1.000000 0.000000
outer loop
vertex 0.559978 -0.145443 -0.119955
vertex 0.705421 -0.145443 -0.410842
vertex 0.145443 -0.145443 -0.410842
endloop
endfacet
facet normal 0.000000 1.000000 0.000000
outer loop
vertex 0.559978 -0.145443 -0.119955
vertex 0.145443 -0.145443 -0.410842
vertex 0.145443 -0.145443 -0.119955
endloop
endfacet
facet normal 0.000000 1.000000 -0.000000
outer loop
vertex -0.145443 -0.145443 -0.410842
vertex -0.705421 -0.145443 -0.410842
vertex -0.559978 -0.145443 -0.119955
endloop
endfacet
facet normal 0.000000 1.000000 0.000000
outer loop
vertex -0.559978 -0.145443 -0.119955
vertex -0.145443 -0.145443 -0.119955
vertex -0.145443 -0.145443 -0.215247
endloop
endfacet
facet normal 0.000000 1.000000 0.000000
outer loop
vertex -0.559978 -0.145443 -0.119955
vertex -0.145443 -0.145443 -0.215247
vertex -0.145443 -0.145443 -0.410842
endloop
endfacet
facet normal -1.000000 0.000000 0.000000
outer loop
vertex 0.145443 -0.145443 0.709113
vertex 0.145443 0.145443 0.709113
vertex 0.145443 0.145443 -0.119955
endloop
endfacet
facet normal -1.000000 0.000000 0.000000
outer loop
vertex 0.145443 -0.145443 0.709113
vertex 0.145443 0.145443 -0.119955
vertex 0.145443 -0.145443 -0.119955
endloop
endfacet
facet normal -1.000000 0.000000 0.000000
outer loop
vertex 0.145443 0.145443 -1.000000
vertex 0.145443 -0.145443 -1.000000
vertex 0.145443 -0.145443 -0.410842
endloop
endfacet
facet normal -1.000000 0.000000 0.000000
outer loop
vertex 0.145443 0.145443 -1.000000
vertex 0.145443 -0.145443 -0.410842
vertex 0.145443 0.145443 -0.410842
endloop
endfacet
facet normal 0.000000 -1.000000 0.000000
outer loop
vertex 0.014869 0.145443 -0.119955
vertex 0.145443 0.145443 -0.119955
vertex 0.145443 0.145443 0.709113
endloop
endfacet
facet normal 0.000000 -1.000000 0.000000
outer loop
vertex 0.145443 0.145443 0.709113
vertex -0.145443 0.145443 0.709113
vertex -0.145443 0.145443 -0.119955
endloop
endfacet
facet normal 0.000000 -1.000000 0.000000
outer loop
vertex 0.014869 0.145443 -0.119955
vertex 0.145443 0.145443 0.709113
vertex -0.145443 0.145443 -0.119955
endloop
endfacet
facet normal 0.000000 -1.000000 0.000000
outer loop
vertex -0.145443 0.145443 -0.410842
vertex -0.145443 0.145443 -1.000000
vertex 0.145443 0.145443 -1.000000
endloop
endfacet
facet normal 0.000000 -1.000000 0.000000
outer loop
vertex -0.145443 0.145443 -0.410842
vertex 0.145443 0.145443 -1.000000
vertex 0.145443 0.145443 -0.410842
endloop
endfacet
facet normal 1.000000 0.000000 0.000000
outer loop
vertex -0.145443 0.145443 -0.119955
vertex -0.145443 0.145443 0.709113
vertex -0.145443 -0.145443 0.709113
endloop
endfacet
facet normal 1.000000 0.000000 0.000000
outer loop
vertex -0.145443 0.145443 -0.119955
vertex -0.145443 -0.145443 0.709113
vertex -0.145443 -0.145443 -0.119955
endloop
endfacet
facet normal 1.000000 0.000000 0.000000
outer loop
vertex -0.145443 -0.145443 -0.410842
vertex -0.145443 -0.145443 -1.000000
vertex -0.145443 0.145443 -1.000000
endloop
endfacet
facet normal 1.000000 0.000000 0.000000
outer loop
vertex -0.145443 -0.145443 -0.410842
vertex -0.145443 0.145443 -1.000000
vertex -0.145443 0.145443 -0.410842
endloop
endfacet
facet normal 0.000000 1.000000 0.000000
outer loop
vertex -0.145443 -0.145443 -0.119955
vertex -0.145443 -0.145443 0.709113
vertex 0.145443 -0.145443 0.709113
endloop
endfacet
facet normal 0.000000 1.000000 0.000000
outer loop
vertex 0.145443 -0.145443 0.709113
vertex 0.145443 -0.145443 -0.119955
vertex -0.014869 -0.145443 -0.119955
endloop
endfacet
facet normal 0.000000 1.000000 0.000000
outer loop
vertex 0.145443 -0.145443 0.709113
vertex -0.014869 -0.145443 -0.119955
vertex -0.145443 -0.145443 -0.119955
endloop
endfacet
facet normal 0.000000 1.000000 0.000000
outer loop
vertex 0.145443 -0.145443 -1.000000
vertex -0.145443 -0.145443 -1.000000
vertex -0.145443 -0.145443 -0.410842
endloop
endfacet
facet normal 0.000000 1.000000 0.000000
outer loop
vertex 0.145443 -0.145443 -1.000000
vertex -0.145443 -0.145443 -0.410842
vertex 0.145443 -0.145443 -0.410842
endloop
endfacet
facet normal 0.000000 0.000000 -1.000000
outer loop
vertex -0.014869 -0.145443 -0.119955
vertex 0.145443 -0.145443 -0.119955
vertex 0.145443 -0.559977 -0.119955
endloop
endfacet
facet normal 0.000000 0.000000 -1.000000
outer loop
vertex 0.145443 -0.559977 -0.119955
vertex -0.145443 -0.559977 -0.119955
vertex -0.145443 -0.145443 -0.119955
endloop
endfacet
facet normal 0.000000 0.000000 -1.000000
outer loop
vertex 0.145443 -0.559977 -0.119955
vertex -0.145443 -0.145443 -0.119955
vertex -0.014869 -0.145443 -0.119955
endloop
endfacet
facet normal 0.000000 0.000000 -1.000000
outer loop
vertex 0.014869 0.145443 -0.119955
vertex -0.145443 0.145443 -0.119955
vertex -0.145443 0.559977 -0.119955
endloop
endfacet
facet normal 0.000000 0.000000 -1.000000
outer loop
vertex -0.145443 0.559977 -0.119955
vertex 0.145443 0.559977 -0.119955
vertex 0.145443 0.145443 -0.119955
endloop
endfacet
facet normal 0.000000 0.000000 -1.000000
outer loop
vertex -0.145443 0.559977 -0.119955
vertex 0.145443 0.145443 -0.119955
vertex 0.014869 0.145443 -0.119955
endloop
endfacet
facet normal 1.000000 0.000000 0.000000
outer loop
vertex -0.145443 -0.145443 -0.215247
vertex -0.145443 -0.145443 -0.119955
vertex -0.145443 -0.559977 -0.119955
endloop
endfacet
facet normal 1.000000 0.000000 0.000000
outer loop
vertex -0.145443 -0.559977 -0.119955
vertex -0.145443 -0.705421 -0.410842
vertex -0.145443 -0.145443 -0.410842
endloop
endfacet
facet normal 1.000000 -0.000000 0.000000
outer loop
vertex -0.145443 -0.145443 -0.215247
vertex -0.145443 -0.559977 -0.119955
vertex -0.145443 -0.145443 -0.410842
endloop
endfacet
facet normal 1.000000 0.000000 0.000000
outer loop
vertex -0.145443 0.145443 -0.410842
vertex -0.145443 0.705421 -0.410842
vertex -0.145443 0.559977 -0.119955
endloop
endfacet
facet normal 1.000000 0.000000 0.000000
outer loop
vertex -0.145443 0.145443 -0.410842
vertex -0.145443 0.559977 -0.119955
vertex -0.145443 0.145443 -0.119955
endloop
endfacet
facet normal 0.000000 0.000000 1.000000
outer loop
vertex 0.145443 -0.705421 -0.410842
vertex 0.145443 -0.145443 -0.410842
vertex -0.145443 -0.145443 -0.410842
endloop
endfacet
facet normal 0.000000 0.000000 1.000000
outer loop
vertex 0.145443 -0.705421 -0.410842
vertex -0.145443 -0.145443 -0.410842
vertex -0.145443 -0.705421 -0.410842
endloop
endfacet
facet normal 0.000000 0.000000 1.000000
outer loop
vertex -0.145443 0.705421 -0.410842
vertex -0.145443 0.145443 -0.410842
vertex 0.145443 0.145443 -0.410842
endloop
endfacet
facet normal 0.000000 0.000000 1.000000
outer loop
vertex -0.145443 0.705421 -0.410842
vertex 0.145443 0.145443 -0.410842
vertex 0.145443 0.705421 -0.410842
endloop
endfacet
facet normal -1.000000 0.000000 0.000000
outer loop
vertex 0.145443 -0.145443 -0.410842
vertex 0.145443 -0.705421 -0.410842
vertex 0.145443 -0.559977 -0.119955
endloop
endfacet
facet normal -1.000000 0.000000 0.000000
outer loop
vertex 0.145443 -0.145443 -0.410842
vertex 0.145443 -0.559977 -0.119955
vertex 0.145443 -0.145443 -0.119955
endloop
endfacet
facet normal -1.000000 0.000000 0.000000
outer loop
vertex 0.145443 0.145443 -0.282115
vertex 0.145443 0.145443 -0.119955
vertex 0.145443 0.559977 -0.119955
endloop
endfacet
facet normal -1.000000 0.000000 0.000000
outer loop
vertex 0.145443 0.559977 -0.119955
vertex 0.145443 0.705421 -0.410842
vertex 0.145443 0.145443 -0.410842
endloop
endfacet
facet normal -1.000000 0.000000 0.000000
outer loop
vertex 0.145443 0.559977 -0.119955
vertex 0.145443 0.145443 -0.410842
vertex 0.145443 0.145443 -0.282115
endloop
endfacet
endsolid Exported from Blender-3.5.1
