solid Exported from Blender-3.5.1
facet normal 0.000000 0.000000 1.000000
outer loop
vertex -0.500000 -0.500000 0.086325
vertex -1.000000 -0.500000 0.086325
vertex -1.000000 -1.000000 0.086325
endloop
endfacet
facet normal 0.000000 0.000000 1.000000
outer loop
vertex -0.500000 -0.500000 0.086325
vertex -1.000000 -1.000000 0.086325
vertex -0.500000 -1.000000 0.086325
endloop
endfacet
facet normal 0.000000 -1.000000 0.000000
outer loop
vertex -0.500000 -1.000000 -0.086325
vertex -0.500000 -1.000000 0.086325
vertex -1.000000 -1.000000 0.086325
endloop
endfacet
facet normal 0.000000 -1.000000 0.000000
outer loop
vertex -0.500000 -1.000000 -0.086325
vertex -1.000000 -1.000000 0.086325
vertex -1.000000 -1.000000 -0.086325
endloop
endfacet
facet normal -1.000000 0.000000 0.000000
outer loop
vertex -1.000000 0.500000 -0.086325
vertex -1.000000 0.500000 0.086325
vertex -1.000000 1.000000 0.086325
endloop
endfacet
facet normal -1.000000 0.000000 0.000000
outer loop
vertex -1.000000 0.500000 -0.086325
vertex -1.000000 1.000000 0.086325
vertex -1.000000 1.000000 -0.086325
endloop
endfacet
facet normal 0.000000 0.000000 -1.000000
outer loop
vertex 0.735109 -0.500000 -0.086325
vertex 1.000000 -0.500000 -0.086325
vertex 1.000000 -1.000000 -0.086325
endloop
endfacet
facet normal 0.000000 0.000000 -1.000000
outer loop
vertex 0.735109 -0.500000 -0.086325
vertex 1.000000 -1.000000 -0.086325
vertex 0.500000 -1.000000 -0.086325
endloop
endfacet
facet normal 1.000000 0.000000 0.000000
outer loop
vertex 1.000000 -0.500000 -0.086325
vertex 1.000000 -0.500000 0.086325
vertex 1.000000 -1.000000 0.086325
endloop
endfacet
facet normal 1.000000 0.000000 0.000000
outer loop
vertex 1.000000 -0.500000 -0.086325
vertex 1.000000 -1.000000 0.086325
vertex 1.000000 -1.000000 -0.086325
endloop
endfacet
facet normal 0.000000 1.000000 0.000000
outer loop
vertex 0.500000 1.000000 -0.086325
vertex 0.500000 1.000000 0.086325
vertex 1.000000 1.000000 0.086325
endloop
endfacet
facet normal 0.000000 1.000000 0.000000
outer loop
vertex 0.500000 1.000000 -0.086325
vertex 1.000000 1.000000 0.086325
vertex 1.000000 1.000000 -0.086325
endloop
endfacet
facet normal 1.000000 0.000000 0.000000
outer loop
vertex 1.000000 0.500000 -0.086325
vertex 1.000000 0.500000 0.086325
vertex 1.000000 0.000000 0.086325
endloop
endfacet
facet normal 1.000000 0.000000 0.000000
outer loop
vertex 1.000000 0.500000 -0.086325
vertex 1.000000 0.000000 0.086325
vertex 1.000000 0.000000 -0.086325
endloop
endfacet
facet normal 0.000000 0.000000 -1.000000
outer loop
vertex 0.270032 0.500000 -0.086325
vertex 1.000000 0.500000 -0.086325
vertex 1.000000 0.000000 -0.086325
endloop
endfacet
facet normal 0.000000 0.000000 -1.000000
outer loop
vertex 0.270032 0.500000 -0.086325
vertex 1.000000 0.000000 -0.086325
vertex 0.500000 0.000000 -0.086325
endloop
endfacet
facet normal -1.000000 0.000000 0.000000
outer loop
vertex -1.000000 -0.500000 -0.086325
vertex -1.000000 -0.500000 0.086325
vertex -1.000000 0.000000 0.086325
endloop
endfacet
facet normal -1.000000 0.000000 0.000000
outer loop
vertex -1.000000 -0.500000 -0.086325
vertex -1.000000 0.000000 0.086325
vertex -1.000000 0.000000 -0.086325
endloop
endfacet
facet normal 0.000000 0.000000 1.000000
outer loop
vertex -0.500000 0.500000 0.086325
vertex -1.000000 0.500000 0.086325
vertex -1.000000 0.000000 0.086325
endloop
endfacet
facet normal 0.000000 0.000000 1.000000
outer loop
vertex -0.500000 0.500000 0.086325
vertex -1.000000 0.000000 0.086325
vertex -0.500000 0.000000 0.086325
endloop
endfacet
facet normal 0.000000 0.000000 1.000000
outer loop
vertex -0.500000 1.000000 0.086325
vertex -1.000000 1.000000 0.086325
vertex -1.000000 0.500000 0.086325
endloop
endfacet
facet normal 0.000000 0.000000 1.000000
outer loop
vertex -0.500000 1.000000 0.086325
vertex -1.000000 0.500000 0.086325
vertex -0.500000 0.500000 0.086325
endloop
endfacet
facet normal 0.000000 0.000000 -1.000000
outer loop
vertex 0.500000 1.000000 -0.086325
vertex 1.000000 1.000000 -0.086325
vertex 1.000000 0.500000 -0.086325
endloop
endfacet
facet normal 0.000000 0.000000 -1.000000
outer loop
vertex 0.500000 1.000000 -0.086325
vertex 1.000000 0.500000 -0.086325
vertex 0.270032 0.500000 -0.086325
endloop
endfacet
facet normal 1.000000 0.000000 0.000000
outer loop
vertex 1.000000 1.000000 -0.086325
vertex 1.000000 1.000000 0.086325
vertex 1.000000 0.500000 0.086325
endloop
endfacet
facet normal 1.000000 0.000000 0.000000
outer loop
vertex 1.000000 1.000000 -0.086325
vertex 1.000000 0.500000 0.086325
vertex 1.000000 0.500000 -0.086325
endloop
endfacet
facet normal -1.000000 0.000000 0.000000
outer loop
vertex -1.000000 0.000000 -0.086325
vertex -1.000000 0.000000 0.086325
vertex -1.000000 0.500000 0.086325
endloop
endfacet
facet normal -1.000000 0.000000 0.000000
outer loop
vertex -1.000000 0.000000 -0.086325
vertex -1.000000 0.500000 0.086325
vertex -1.000000 0.500000 -0.086325
endloop
endfacet
facet normal -1.000000 0.000000 0.000000
outer loop
vertex -1.000000 -1.000000 -0.086325
vertex -1.000000 -1.000000 0.086325
vertex -1.000000 -0.500000 0.086325
endloop
endfacet
facet normal -1.000000 0.000000 0.000000
outer loop
vertex -1.000000 -1.000000 -0.086325
vertex -1.000000 -0.500000 0.086325
vertex -1.000000 -0.500000 -0.086325
endloop
endfacet
facet normal 1.000000 0.000000 0.000000
outer loop
vertex 1.000000 0.000000 -0.086325
vertex 1.000000 0.000000 0.086325
vertex 1.000000 -0.500000 0.086325
endloop
endfacet
facet normal 1.000000 0.000000 0.000000
outer loop
vertex 1.000000 0.000000 -0.086325
vertex 1.000000 -0.500000 0.086325
vertex 1.000000 -0.500000 -0.086325
endloop
endfacet
facet normal 0.000000 0.000000 -1.000000
outer loop
vertex 0.500000 0.000000 -0.086325
vertex 1.000000 0.000000 -0.086325
vertex 1.000000 -0.500000 -0.086325
endloop
endfacet
facet normal 0.000000 0.000000 -1.000000
outer loop
vertex 0.500000 0.000000 -0.086325
vertex 1.000000 -0.500000 -0.086325
vertex 0.735109 -0.500000 -0.086325
endloop
endfacet
facet normal 0.000000 0.000000 1.000000
outer loop
vertex -0.500000 0.000000 0.086325
vertex -1.000000 0.000000 0.086325
vertex -1.000000 -0.500000 0.086325
endloop
endfacet
facet normal 0.000000 0.000000 1.000000
outer loop
vertex -0.500000 0.000000 0.086325
vertex -1.000000 -0.500000 0.086325
vertex -0.500000 -0.500000 0.086325
endloop
endfacet
facet normal 0.000000 0.000000 1.000000
outer loop
vertex 0.500000 0.000000 0.086325
vertex 0.000000 0.000000 0.086325
vertex 0.000000 -0.500000 0.086325
endloop
endfacet
facet normal 0.000000 0.000000 1.000000
outer loop
vertex 0.500000 0.000000 0.086325
vertex 0.000000 -0.500000 0.086325
vertex 0.500000 -0.500000 0.086325
endloop
endfacet
facet normal 0.000000 0.000000 -1.000000
outer loop
vertex -0.500000 0.000000 -0.086325
vertex 0.000000 0.000000 -0.086325
vertex 0.000000 -0.500000 -0.086325
endloop
endfacet
facet normal 0.000000 0.000000 -1.000000
outer loop
vertex -0.500000 0.000000 -0.086325
vertex 0.000000 -0.500000 -0.086325
vertex -0.500000 -0.214746 -0.086325
endloop
endfacet
facet normal 0.000000 0.000000 -1.000000
outer loop
vertex -0.500000 1.000000 -0.086325
vertex 0.000000 1.000000 -0.086325
vertex 0.000000 0.500000 -0.086325
endloop
endfacet
facet normal 0.000000 0.000000 -1.000000
outer loop
vertex -0.500000 1.000000 -0.086325
vertex 0.000000 0.500000 -0.086325
vertex -0.500000 0.500000 -0.086325
endloop
endfacet
facet normal 0.000000 0.000000 1.000000
outer loop
vertex 0.500000 1.000000 0.086325
vertex 0.000000 1.000000 0.086325
vertex 0.000000 0.500000 0.086325
endloop
endfacet
facet normal 0.000000 0.000000 1.000000
outer loop
vertex 0.500000 1.000000 0.086325
vertex 0.000000 0.500000 0.086325
vertex 0.500000 0.500000 0.086325
endloop
endfacet
facet normal 0.000000 0.000000 1.000000
outer loop
vertex 0.500000 0.500000 0.086325
vertex 0.000000 0.500000 0.086325
vertex 0.000000 0.000000 0.086325
endloop
endfacet
facet normal 0.000000 0.000000 1.000000
outer loop
vertex 0.500000 0.500000 0.086325
vertex 0.000000 0.000000 0.086325
vertex 0.500000 0.000000 0.086325
endloop
endfacet
facet normal 0.000000 0.000000 -1.000000
outer loop
vertex -0.500000 0.500000 -0.086325
vertex 0.000000 0.500000 -0.086325
vertex 0.000000 0.000000 -0.086325
endloop
endfacet
facet normal 0.000000 0.000000 -1.000000
outer loop
vertex -0.500000 0.500000 -0.086325
vertex 0.000000 0.000000 -0.086325
vertex -0.500000 0.000000 -0.086325
endloop
endfacet
facet normal 0.000000 1.000000 0.000000
outer loop
vertex -0.500000 1.000000 -0.086325
vertex -0.500000 1.000000 0.086325
vertex 0.000000 1.000000 0.086325
endloop
endfacet
facet normal 0.000000 1.000000 0.000000
outer loop
vertex -0.500000 1.000000 -0.086325
vertex 0.000000 1.000000 0.086325
vertex 0.000000 1.000000 -0.086325
endloop
endfacet
facet normal -0.000000 0.000000 -1.000000
outer loop
vertex -0.500000 -0.214746 -0.086325
vertex 0.000000 -0.500000 -0.086325
vertex 0.000000 -1.000000 -0.086325
endloop
endfacet
facet normal 0.000000 0.000000 -1.000000
outer loop
vertex -0.500000 -0.214746 -0.086325
vertex 0.000000 -1.000000 -0.086325
vertex -0.500000 -1.000000 -0.086325
endloop
endfacet
facet normal 0.000000 -1.000000 0.000000
outer loop
vertex 0.500000 -1.000000 -0.086325
vertex 0.500000 -1.000000 0.086325
vertex 0.000000 -1.000000 0.086325
endloop
endfacet
facet normal 0.000000 -1.000000 0.000000
outer loop
vertex 0.500000 -1.000000 -0.086325
vertex 0.000000 -1.000000 0.086325
vertex 0.000000 -1.000000 -0.086325
endloop
endfacet
facet normal 0.000000 0.000000 1.000000
outer loop
vertex 0.500000 -0.500000 0.086325
vertex 0.000000 -0.500000 0.086325
vertex 0.000000 -1.000000 0.086325
endloop
endfacet
facet normal 0.000000 0.000000 1.000000
outer loop
vertex 0.500000 -0.500000 0.086325
vertex 0.000000 -1.000000 0.086325
vertex 0.500000 -1.000000 0.086325
endloop
endfacet
facet normal 0.000000 0.000000 1.000000
outer loop
vertex 1.000000 -0.500000 0.086325
vertex 0.500000 -0.500000 0.086325
vertex 0.500000 -1.000000 0.086325
endloop
endfacet
facet normal 0.000000 0.000000 1.000000
outer loop
vertex 1.000000 -0.500000 0.086325
vertex 0.500000 -1.000000 0.086325
vertex 1.000000 -1.000000 0.086325
endloop
endfacet
facet normal 0.000000 -1.000000 0.000000
outer loop
vertex 1.000000 -1.000000 -0.086325
vertex 1.000000 -1.000000 0.086325
vertex 0.500000 -1.000000 0.086325
endloop
endfacet
facet normal 0.000000 -1.000000 0.000000
outer loop
vertex 1.000000 -1.000000 -0.086325
vertex 0.500000 -1.000000 0.086325
vertex 0.500000 -1.000000 -0.086325
endloop
endfacet
facet normal 0.000000 0.000000 1.000000
outer loop
vertex 1.000000 0.500000 0.086325
vertex 0.500000 0.500000 0.086325
vertex 0.500000 0.000000 0.086325
endloop
endfacet
facet normal 0.000000 0.000000 1.000000
outer loop
vertex 1.000000 0.500000 0.086325
vertex 0.500000 0.000000 0.086325
vertex 1.000000 0.000000 0.086325
endloop
endfacet
facet normal 0.000000 0.000000 1.000000
outer loop
vertex 1.000000 1.000000 0.086325
vertex 0.500000 1.000000 0.086325
vertex 0.500000 0.500000 0.086325
endloop
endfacet
facet normal 0.000000 0.000000 1.000000
outer loop
vertex 1.000000 1.000000 0.086325
vertex 0.500000 0.500000 0.086325
vertex 1.000000 0.500000 0.086325
endloop
endfacet
facet normal 0.000000 0.000000 1.000000
outer loop
vertex 1.000000 0.000000 0.086325
vertex 0.500000 0.000000 0.086325
vertex 0.500000 -0.500000 0.086325
endloop
endfacet
facet normal 0.000000 0.000000 1.000000
outer loop
vertex 1.000000 0.000000 0.086325
vertex 0.500000 -0.500000 0.086325
vertex 1.000000 -0.500000 0.086325
endloop
endfacet
facet normal 0.000000 0.000000 -1.000000
outer loop
vertex 0.000000 0.000000 -0.086325
vertex 0.500000 0.000000 -0.086325
vertex 0.735109 -0.500000 -0.086325
endloop
endfacet
facet normal 0.000000 0.000000 -1.000000
outer loop
vertex 0.000000 0.000000 -0.086325
vertex 0.735109 -0.500000 -0.086325
vertex 0.000000 -0.500000 -0.086325
endloop
endfacet
facet normal 0.000000 0.000000 -1.000000
outer loop
vertex 0.000000 1.000000 -0.086325
vertex 0.500000 1.000000 -0.086325
vertex 0.270032 0.500000 -0.086325
endloop
endfacet
facet normal 0.000000 0.000000 -1.000000
outer loop
vertex 0.000000 1.000000 -0.086325
vertex 0.270032 0.500000 -0.086325
vertex 0.000000 0.500000 -0.086325
endloop
endfacet
facet normal 0.000000 0.000000 -1.000000
outer loop
vertex 0.000000 0.500000 -0.086325
vertex 0.270032 0.500000 -0.086325
vertex 0.500000 0.000000 -0.086325
endloop
endfacet
facet normal 0.000000 0.000000 -1.000000
outer loop
vertex 0.000000 0.500000 -0.086325
vertex 0.500000 0.000000 -0.086325
vertex 0.000000 0.000000 -0.086325
endloop
endfacet
facet normal 0.000000 1.000000 0.000000
outer loop
vertex 0.000000 1.000000 -0.086325
vertex 0.000000 1.000000 0.086325
vertex 0.500000 1.000000 0.086325
endloop
endfacet
facet normal 0.000000 1.000000 0.000000
outer loop
vertex 0.000000 1.000000 -0.086325
vertex 0.500000 1.000000 0.086325
vertex 0.500000 1.000000 -0.086325
endloop
endfacet
facet normal 0.000000 0.000000 -1.000000
outer loop
vertex 0.000000 -0.500000 -0.086325
vertex 0.735109 -0.500000 -0.086325
vertex 0.500000 -1.000000 -0.086325
endloop
endfacet
facet normal 0.000000 0.000000 -1.000000
outer loop
vertex 0.000000 -0.500000 -0.086325
vertex 0.500000 -1.000000 -0.086325
vertex 0.000000 -1.000000 -0.086325
endloop
endfacet
facet normal 0.000000 0.000000 -1.000000
outer loop
vertex -1.000000 -0.500000 -0.086325
vertex -0.500000 -0.214746 -0.086325
vertex -0.500000 -1.000000 -0.086325
endloop
endfacet
facet normal 0.000000 0.000000 -1.000000
outer loop
vertex -1.000000 -0.500000 -0.086325
vertex -0.500000 -1.000000 -0.086325
vertex -1.000000 -1.000000 -0.086325
endloop
endfacet
facet normal 0.000000 1.000000 0.000000
outer loop
vertex -1.000000 1.000000 -0.086325
vertex -1.000000 1.000000 0.086325
vertex -0.500000 1.000000 0.086325
endloop
endfacet
facet normal 0.000000 1.000000 0.000000
outer loop
vertex -1.000000 1.000000 -0.086325
vertex -0.500000 1.000000 0.086325
vertex -0.500000 1.000000 -0.086325
endloop
endfacet
facet normal 0.000000 0.000000 -1.000000
outer loop
vertex -1.000000 0.500000 -0.086325
vertex -0.500000 0.500000 -0.086325
vertex -0.500000 0.000000 -0.086325
endloop
endfacet
facet normal 0.000000 0.000000 -1.000000
outer loop
vertex -1.000000 0.500000 -0.086325
vertex -0.500000 0.000000 -0.086325
vertex -1.000000 0.000000 -0.086325
endloop
endfacet
facet normal 0.000000 0.000000 -1.000000
outer loop
vertex -1.000000 1.000000 -0.086325
vertex -0.500000 1.000000 -0.086325
vertex -0.500000 0.500000 -0.086325
endloop
endfacet
facet normal 0.000000 0.000000 -1.000000
outer loop
vertex -1.000000 1.000000 -0.086325
vertex -0.500000 0.500000 -0.086325
vertex -1.000000 0.500000 -0.086325
endloop
endfacet
facet normal 0.000000 0.000000 -1.000000
outer loop
vertex -1.000000 0.000000 -0.086325
vertex -0.500000 0.000000 -0.086325
vertex -0.500000 -0.214746 -0.086325
endloop
endfacet
facet normal 0.000000 0.000000 -1.000000
outer loop
vertex -1.000000 0.000000 -0.086325
vertex -0.500000 -0.214746 -0.086325
vertex -1.000000 -0.500000 -0.086325
endloop
endfacet
facet normal 0.000000 0.000000 1.000000
outer loop
vertex 0.000000 0.000000 0.086325
vertex -0.500000 0.000000 0.086325
vertex -0.500000 -0.500000 0.086325
endloop
endfacet
facet normal 0.000000 0.000000 1.000000
outer loop
vertex 0.000000 0.000000 0.086325
vertex -0.500000 -0.500000 0.086325
vertex 0.000000 -0.500000 0.086325
endloop
endfacet
facet normal 0.000000 0.000000 1.000000
outer loop
vertex 0.000000 1.000000 0.086325
vertex -0.500000 1.000000 0.086325
vertex -0.500000 0.500000 0.086325
endloop
endfacet
facet normal 0.000000 0.000000 1.000000
outer loop
vertex 0.000000 1.000000 0.086325
vertex -0.500000 0.500000 0.086325
vertex 0.000000 0.500000 0.086325
endloop
endfacet
facet normal 0.000000 0.000000 1.000000
outer loop
vertex 0.000000 0.500000 0.086325
vertex -0.500000 0.500000 0.086325
vertex -0.500000 0.000000 0.086325
endloop
endfacet
facet normal 0.000000 0.000000 1.000000
outer loop
vertex 0.000000 0.500000 0.086325
vertex -0.500000 0.000000 0.086325
vertex 0.000000 0.000000 0.086325
endloop
endfacet
facet normal 0.000000 -1.000000 0.000000
outer loop
vertex 0.000000 -1.000000 -0.086325
vertex 0.000000 -1.000000 0.086325
vertex -0.500000 -1.000000 0.086325
endloop
endfacet
facet normal 0.000000 -1.000000 0.000000
outer loop
vertex 0.000000 -1.000000 -0.086325
vertex -0.500000 -1.000000 0.086325
vertex -0.500000 -1.000000 -0.086325
endloop
endfacet
facet normal 0.000000 0.000000 1.000000
outer loop
vertex 0.000000 -0.500000 0.086325
vertex -0.500000 -0.500000 0.086325
vertex -0.500000 -1.000000 0.086325
endloop
endfacet
facet normal 0.000000 0.000000 1.000000
outer loop
vertex 0.000000 -0.500000 0.086325
vertex -0.500000 -1.000000 0.086325
vertex 0.000000 -1.000000 0.086325
endloop
endfacet
endsolid Exported from Blender-3.5.1
