solid Exported from Blender-3.5.1
facet normal 0.098017 0.995185 0.000000
outer loop
vertex 0.000000 1.000000 -0.122439
vertex 0.000000 1.000000 0.122439
vertex 0.195090 0.980785 0.122439
endloop
endfacet
facet normal 0.098017 0.995185 0.000000
outer loop
vertex 0.000000 1.000000 -0.122439
vertex 0.195090 0.980785 0.122439
vertex 0.195090 0.980785 -0.122439
endloop
endfacet
facet normal 0.290285 0.956940 0.000000
outer loop
vertex 0.195090 0.980785 -0.122439
vertex 0.195090 0.980785 0.122439
vertex 0.382683 0.923880 0.122439
endloop
endfacet
facet normal 0.290285 0.956940 0.000000
outer loop
vertex 0.195090 0.980785 -0.122439
vertex 0.382683 0.923880 0.122439
vertex 0.382683 0.923880 -0.122439
endloop
endfacet
facet normal 0.471397 0.881921 0.000000
outer loop
vertex 0.382683 0.923880 -0.122439
vertex 0.382683 0.923880 0.122439
vertex 0.555570 0.831470 0.122439
endloop
endfacet
facet normal 0.471397 0.881921 0.000000
outer loop
vertex 0.382683 0.923880 -0.122439
vertex 0.555570 0.831470 0.122439
vertex 0.555570 0.831470 -0.122439
endloop
endfacet
facet normal 0.634393 0.773010 0.000000
outer loop
vertex 0.555570 0.831470 -0.122439
vertex 0.555570 0.831470 0.122439
vertex 0.707107 0.707107 0.122439
endloop
endfacet
facet normal 0.634393 0.773010 0.000000
outer loop
vertex 0.555570 0.831470 -0.122439
vertex 0.707107 0.707107 0.122439
vertex 0.707107 0.707107 -0.122439
endloop
endfacet
facet normal 0.773010 0.634394 0.000000
outer loop
vertex 0.707107 0.707107 -0.122439
vertex 0.707107 0.707107 0.122439
vertex 0.831470 0.555570 0.122439
endloop
endfacet
facet normal 0.773011 0.634393 0.000000
outer loop
vertex 0.707107 0.707107 -0.122439
vertex 0.831470 0.555570 0.122439
vertex 0.831470 0.555570 -0.122439
endloop
endfacet
facet normal 0.881921 0.471397 0.000000
outer loop
vertex 0.831470 0.555570 -0.122439
vertex 0.831470 0.555570 0.122439
vertex 0.923880 0.382683 0.122439
endloop
endfacet
facet normal 0.881921 0.471396 0.000000
outer loop
vertex 0.831470 0.555570 -0.122439
vertex 0.923880 0.382683 0.122439
vertex 0.923880 0.382683 -0.122439
endloop
endfacet
facet normal 0.956940 0.290285 0.000000
outer loop
vertex 0.923880 0.382683 -0.122439
vertex 0.923880 0.382683 0.122439
vertex 0.980785 0.195090 0.122439
endloop
endfacet
facet normal 0.956940 0.290285 0.000000
outer loop
vertex 0.923880 0.382683 -0.122439
vertex 0.980785 0.195090 0.122439
vertex 0.980785 0.195090 -0.122439
endloop
endfacet
facet normal 0.995185 0.098017 0.000000
outer loop
vertex 0.980785 0.195090 -0.122439
vertex 0.980785 0.195090 0.122439
vertex 1.000000 0.000000 0.122439
endloop
endfacet
facet normal 0.995185 0.098017 0.000000
outer loop
vertex 0.980785 0.195090 -0.122439
vertex 1.000000 0.000000 0.122439
vertex 1.000000 0.000000 -0.122439
endloop
endfacet
facet normal 0.995185 -0.098017 0.000000
outer loop
vertex 1.000000 0.000000 -0.122439
vertex 1.000000 0.000000 0.122439
vertex 0.980785 -0.195090 0.122439
endloop
endfacet
facet normal 0.995185 -0.098017 0.000000
outer loop
vertex 1.000000 0.000000 -0.122439
vertex 0.980785 -0.195090 0.122439
vertex 0.980785 -0.195090 -0.122439
endloop
endfacet
facet normal 0.956940 -0.290285 0.000000
outer loop
vertex 0.980785 -0.195090 -0.122439
vertex 0.980785 -0.195090 0.122439
vertex 0.923880 -0.382683 0.122439
endloop
endfacet
facet normal 0.956940 -0.290285 0.000000
outer loop
vertex 0.980785 -0.195090 -0.122439
vertex 0.923880 -0.382683 0.122439
vertex 0.923880 -0.382683 -0.122439
endloop
endfacet
facet normal 0.881921 -0.471396 0.000000
outer loop
vertex 0.923880 -0.382683 -0.122439
vertex 0.923880 -0.382683 0.122439
vertex 0.831470 -0.555570 0.122439
endloop
endfacet
facet normal 0.881921 -0.471397 0.000000
outer loop
vertex 0.923880 -0.382683 -0.122439
vertex 0.831470 -0.555570 0.122439
vertex 0.831470 -0.555570 -0.122439
endloop
endfacet
facet normal 0.773011 -0.634393 0.000000
outer loop
vertex 0.831470 -0.555570 -0.122439
vertex 0.831470 -0.555570 0.122439
vertex 0.707107 -0.707107 0.122439
endloop
endfacet
facet normal 0.773010 -0.634394 0.000000
outer loop
vertex 0.831470 -0.555570 -0.122439
vertex 0.707107 -0.707107 0.122439
vertex 0.707107 -0.707107 -0.122439
endloop
endfacet
facet normal 0.634393 -0.773010 0.000000
outer loop
vertex 0.707107 -0.707107 -0.122439
vertex 0.707107 -0.707107 0.122439
vertex 0.555570 -0.831470 0.122439
endloop
endfacet
facet normal 0.634393 -0.773010 0.000000
outer loop
vertex 0.707107 -0.707107 -0.122439
vertex 0.555570 -0.831470 0.122439
vertex 0.555570 -0.831470 -0.122439
endloop
endfacet
facet normal 0.471397 -0.881921 0.000000
outer loop
vertex 0.555570 -0.831470 -0.122439
vertex 0.555570 -0.831470 0.122439
vertex 0.382683 -0.923880 0.122439
endloop
endfacet
facet normal 0.471397 -0.881921 0.000000
outer loop
vertex 0.555570 -0.831470 -0.122439
vertex 0.382683 -0.923880 0.122439
vertex 0.382683 -0.923880 -0.122439
endloop
endfacet
facet normal 0.290285 -0.956940 0.000000
outer loop
vertex 0.382683 -0.923880 -0.122439
vertex 0.382683 -0.923880 0.122439
vertex 0.195090 -0.980785 0.122439
endloop
endfacet
facet normal 0.290285 -0.956940 0.000000
outer loop
vertex 0.382683 -0.923880 -0.122439
vertex 0.195090 -0.980785 0.122439
vertex 0.195090 -0.980785 -0.122439
endloop
endfacet
facet normal 0.098017 -0.995185 0.000000
outer loop
vertex 0.195090 -0.980785 -0.122439
vertex 0.195090 -0.980785 0.122439
vertex 0.000000 -1.000000 0.122439
endloop
endfacet
facet normal 0.098017 -0.995185 0.000000
outer loop
vertex 0.195090 -0.980785 -0.122439
vertex 0.000000 -1.000000 0.122439
vertex 0.000000 -1.000000 -0.122439
endloop
endfacet
facet normal -0.098017 -0.995185 0.000000
outer loop
vertex 0.000000 -1.000000 -0.122439
vertex 0.000000 -1.000000 0.122439
vertex -0.195090 -0.980785 0.122439
endloop
endfacet
facet normal -0.098017 -0.995185 0.000000
outer loop
vertex 0.000000 -1.000000 -0.122439
vertex -0.195090 -0.980785 0.122439
vertex -0.195090 -0.980785 -0.122439
endloop
endfacet
facet normal -0.290285 -0.956940 0.000000
outer loop
vertex -0.195090 -0.980785 -0.122439
vertex -0.195090 -0.980785 0.122439
vertex -0.382683 -0.923880 0.122439
endloop
endfacet
facet normal -0.290285 -0.956940 0.000000
outer loop
vertex -0.195090 -0.980785 -0.122439
vertex -0.382683 -0.923880 0.122439
vertex -0.382683 -0.923880 -0.122439
endloop
endfacet
facet normal -0.471397 -0.881921 0.000000
outer loop
vertex -0.382683 -0.923880 -0.122439
vertex -0.382683 -0.923880 0.122439
vertex -0.555570 -0.831470 0.122439
endloop
endfacet
facet normal -0.471397 -0.881921 0.000000
outer loop
vertex -0.382683 -0.923880 -0.122439
vertex -0.555570 -0.831470 0.122439
vertex -0.555570 -0.831470 -0.122439
endloop
endfacet
facet normal -0.634393 -0.773010 0.000000
outer loop
vertex -0.555570 -0.831470 -0.122439
vertex -0.555570 -0.831470 0.122439
vertex -0.707107 -0.707107 0.122439
endloop
endfacet
facet normal -0.634393 -0.773010 0.000000
outer loop
vertex -0.555570 -0.831470 -0.122439
vertex -0.707107 -0.707107 0.122439
vertex -0.707107 -0.707107 -0.122439
endloop
endfacet
facet normal -0.773010 -0.634394 0.000000
outer loop
vertex -0.707107 -0.707107 -0.122439
vertex -0.707107 -0.707107 0.122439
vertex -0.831470 -0.555570 0.122439
endloop
endfacet
facet normal -0.773011 -0.634393 0.000000
outer loop
vertex -0.707107 -0.707107 -0.122439
vertex -0.831470 -0.555570 0.122439
vertex -0.831470 -0.555570 -0.122439
endloop
endfacet
facet normal -0.881921 -0.471397 0.000000
outer loop
vertex -0.831470 -0.555570 -0.122439
vertex -0.831470 -0.555570 0.122439
vertex -0.923880 -0.382683 0.122439
endloop
endfacet
facet normal -0.881921 -0.471396 0.000000
outer loop
vertex -0.831470 -0.555570 -0.122439
vertex -0.923880 -0.382683 0.122439
vertex -0.923880 -0.382683 -0.122439
endloop
endfacet
facet normal -0.956940 -0.290285 0.000000
outer loop
vertex -0.923880 -0.382683 -0.122439
vertex -0.923880 -0.382683 0.122439
vertex -0.980785 -0.195090 0.122439
endloop
endfacet
facet normal -0.956940 -0.290285 0.000000
outer loop
vertex -0.923880 -0.382683 -0.122439
vertex -0.980785 -0.195090 0.122439
vertex -0.980785 -0.195090 -0.122439
endloop
endfacet
facet normal -0.995185 -0.098017 0.000000
outer loop
vertex -0.980785 -0.195090 -0.122439
vertex -0.980785 -0.195090 0.122439
vertex -1.000000 0.000000 0.122439
endloop
endfacet
facet normal -0.995185 -0.098017 0.000000
outer loop
vertex -0.980785 -0.195090 -0.122439
vertex -1.000000 0.000000 0.122439
vertex -1.000000 0.000000 -0.122439
endloop
endfacet
facet normal -0.995185 0.098017 0.000000
outer loop
vertex -1.000000 0.000000 -0.122439
vertex -1.000000 0.000000 0.122439
vertex -0.980785 0.195090 0.122439
endloop
endfacet
facet normal -0.995185 0.098017 0.000000
outer loop
vertex -1.000000 0.000000 -0.122439
vertex -0.980785 0.195090 0.122439
vertex -0.980785 0.195090 -0.122439
endloop
endfacet
facet normal -0.956940 0.290285 0.000000
outer loop
vertex -0.980785 0.195090 -0.122439
vertex -0.980785 0.195090 0.122439
vertex -0.923880 0.382683 0.122439
endloop
endfacet
facet normal -0.956940 0.290285 0.000000
outer loop
vertex -0.980785 0.195090 -0.122439
vertex -0.923880 0.382683 0.122439
vertex -0.923880 0.382683 -0.122439
endloop
endfacet
facet normal -0.881921 0.471396 0.000000
outer loop
vertex -0.923880 0.382683 -0.122439
vertex -0.923880 0.382683 0.122439
vertex -0.831470 0.555570 0.122439
endloop
endfacet
facet normal -0.881921 0.471397 0.000000
outer loop
vertex -0.923880 0.382683 -0.122439
vertex -0.831470 0.555570 0.122439
vertex -0.831470 0.555570 -0.122439
endloop
endfacet
facet normal -0.773011 0.634393 0.000000
outer loop
vertex -0.831470 0.555570 -0.122439
vertex -0.831470 0.555570 0.122439
vertex -0.707107 0.707107 0.122439
endloop
endfacet
facet normal -0.773010 0.634394 0.000000
outer loop
vertex -0.831470 0.555570 -0.122439
vertex -0.707107 0.707107 0.122439
vertex -0.707107 0.707107 -0.122439
endloop
endfacet
facet normal -0.634393 0.773010 0.000000
outer loop
vertex -0.707107 0.707107 -0.122439
vertex -0.707107 0.707107 0.122439
vertex -0.555570 0.831470 0.122439
endloop
endfacet
facet normal -0.634393 0.773010 0.000000
outer loop
vertex -0.707107 0.707107 -0.122439
vertex -0.555570 0.831470 0.122439
vertex -0.555570 0.831470 -0.122439
endloop
endfacet
facet normal -0.471397 0.881921 0.000000
outer loop
vertex -0.555570 0.831470 -0.122439
vertex -0.555570 0.831470 0.122439
vertex -0.382683 0.923880 0.122439
endloop
endfacet
facet normal -0.471397 0.881921 0.000000
outer loop
vertex -0.555570 0.831470 -0.122439
vertex -0.382683 0.923880 0.122439
vertex -0.382683 0.923880 -0.122439
endloop
endfacet
facet normal 0.000000 0.000000 0.000000
outer loop
vertex 0.320981 0.774916 0.122439
vertex 0.163635 0.822647 0.122439
vertex 0.163635 0.822647 0.122439
endloop
endfacet
facet normal 0.000000 0.000000 0.000000
outer loop
vertex 0.320981 0.774916 0.122439
vertex 0.163635 0.822647 0.122439
vertex 0.320981 0.774916 0.122439
endloop
endfacet
facet normal -0.290285 0.956940 0.000000
outer loop
vertex -0.382683 0.923880 -0.122439
vertex -0.382683 0.923880 0.122439
vertex -0.195090 0.980785 0.122439
endloop
endfacet
facet normal -0.290285 0.956940 0.000000
outer loop
vertex -0.382683 0.923880 -0.122439
vertex -0.195090 0.980785 0.122439
vertex -0.195090 0.980785 -0.122439
endloop
endfacet
facet normal -0.098017 0.995185 0.000000
outer loop
vertex -0.195090 0.980785 -0.122439
vertex -0.195090 0.980785 0.122439
vertex 0.000000 1.000000 0.122439
endloop
endfacet
facet normal -0.098017 0.995185 0.000000
outer loop
vertex -0.195090 0.980785 -0.122439
vertex 0.000000 1.000000 0.122439
vertex 0.000000 1.000000 -0.122439
endloop
endfacet
facet normal 0.000000 0.000000 1.000000
outer loop
vertex 0.000000 0.838763 0.122439
vertex 0.163635 0.822647 0.122439
vertex 0.195090 0.980785 0.122439
endloop
endfacet
facet normal -0.000000 0.000000 1.000000
outer loop
vertex 0.000000 0.838763 0.122439
vertex 0.195090 0.980785 0.122439
vertex 0.000000 1.000000 0.122439
endloop
endfacet
facet normal 0.000000 0.000000 1.000000
outer loop
vertex 0.163635 0.822647 0.122439
vertex 0.320981 0.774916 0.122439
vertex 0.382683 0.923880 0.122439
endloop
endfacet
facet normal 0.000000 0.000000 1.000000
outer loop
vertex 0.163635 0.822647 0.122439
vertex 0.382683 0.923880 0.122439
vertex 0.195090 0.980785 0.122439
endloop
endfacet
facet normal 0.000000 0.000000 1.000000
outer loop
vertex 0.320981 0.774916 0.122439
vertex 0.465992 0.697406 0.122439
vertex 0.555570 0.831470 0.122439
endloop
endfacet
facet normal -0.000000 0.000000 1.000000
outer loop
vertex 0.320981 0.774916 0.122439
vertex 0.555570 0.831470 0.122439
vertex 0.382683 0.923880 0.122439
endloop
endfacet
facet normal 0.000000 0.000000 1.000000
outer loop
vertex 0.465992 0.697406 0.122439
vertex 0.593095 0.593095 0.122439
vertex 0.707107 0.707107 0.122439
endloop
endfacet
facet normal 0.000000 0.000000 1.000000
outer loop
vertex 0.465992 0.697406 0.122439
vertex 0.707107 0.707107 0.122439
vertex 0.555570 0.831470 0.122439
endloop
endfacet
facet normal 0.000000 0.000000 1.000000
outer loop
vertex 0.593095 0.593095 0.122439
vertex 0.697406 0.465992 0.122439
vertex 0.831470 0.555570 0.122439
endloop
endfacet
facet normal 0.000000 0.000000 1.000000
outer loop
vertex 0.593095 0.593095 0.122439
vertex 0.831470 0.555570 0.122439
vertex 0.707107 0.707107 0.122439
endloop
endfacet
facet normal -0.000000 0.000000 1.000000
outer loop
vertex 0.697406 0.465992 0.122439
vertex 0.774916 0.320981 0.122439
vertex 0.923880 0.382683 0.122439
endloop
endfacet
facet normal 0.000000 0.000000 1.000000
outer loop
vertex 0.697406 0.465992 0.122439
vertex 0.923880 0.382683 0.122439
vertex 0.831470 0.555570 0.122439
endloop
endfacet
facet normal 0.000000 0.000000 1.000000
outer loop
vertex 0.774916 0.320981 0.122439
vertex 0.822647 0.163635 0.122439
vertex 0.980785 0.195090 0.122439
endloop
endfacet
facet normal 0.000000 0.000000 1.000000
outer loop
vertex 0.774916 0.320981 0.122439
vertex 0.980785 0.195090 0.122439
vertex 0.923880 0.382683 0.122439
endloop
endfacet
facet normal 0.000000 0.000000 1.000000
outer loop
vertex 0.822647 0.163635 0.122439
vertex 0.838763 0.000000 0.122439
vertex 1.000000 0.000000 0.122439
endloop
endfacet
facet normal 0.000000 0.000000 1.000000
outer loop
vertex 0.822647 0.163635 0.122439
vertex 1.000000 0.000000 0.122439
vertex 0.980785 0.195090 0.122439
endloop
endfacet
facet normal 0.000000 0.000000 1.000000
outer loop
vertex 0.838763 0.000000 0.122439
vertex 0.822647 -0.163635 0.122439
vertex 0.980785 -0.195090 0.122439
endloop
endfacet
facet normal 0.000000 0.000000 1.000000
outer loop
vertex 0.838763 0.000000 0.122439
vertex 0.980785 -0.195090 0.122439
vertex 1.000000 0.000000 0.122439
endloop
endfacet
facet normal 0.000000 0.000000 1.000000
outer loop
vertex 0.822647 -0.163635 0.122439
vertex 0.774916 -0.320981 0.122439
vertex 0.923880 -0.382683 0.122439
endloop
endfacet
facet normal 0.000000 0.000000 1.000000
outer loop
vertex 0.822647 -0.163635 0.122439
vertex 0.923880 -0.382683 0.122439
vertex 0.980785 -0.195090 0.122439
endloop
endfacet
facet normal -0.000000 0.000000 1.000000
outer loop
vertex 0.774916 -0.320981 0.122439
vertex 0.697406 -0.465992 0.122439
vertex 0.831470 -0.555570 0.122439
endloop
endfacet
facet normal 0.000000 0.000000 1.000000
outer loop
vertex 0.774916 -0.320981 0.122439
vertex 0.831470 -0.555570 0.122439
vertex 0.923880 -0.382683 0.122439
endloop
endfacet
facet normal 0.000000 0.000000 1.000000
outer loop
vertex 0.697406 -0.465992 0.122439
vertex 0.593095 -0.593095 0.122439
vertex 0.707107 -0.707107 0.122439
endloop
endfacet
facet normal 0.000000 0.000000 1.000000
outer loop
vertex 0.697406 -0.465992 0.122439
vertex 0.707107 -0.707107 0.122439
vertex 0.831470 -0.555570 0.122439
endloop
endfacet
facet normal 0.000000 0.000000 1.000000
outer loop
vertex 0.593095 -0.593095 0.122439
vertex 0.465992 -0.697406 0.122439
vertex 0.555570 -0.831470 0.122439
endloop
endfacet
facet normal 0.000000 0.000000 1.000000
outer loop
vertex 0.593095 -0.593095 0.122439
vertex 0.555570 -0.831470 0.122439
vertex 0.707107 -0.707107 0.122439
endloop
endfacet
facet normal 0.000000 0.000000 1.000000
outer loop
vertex 0.465992 -0.697406 0.122439
vertex 0.320981 -0.774916 0.122439
vertex 0.382683 -0.923880 0.122439
endloop
endfacet
facet normal 0.000000 0.000000 1.000000
outer loop
vertex 0.465992 -0.697406 0.122439
vertex 0.382683 -0.923880 0.122439
vertex 0.555570 -0.831470 0.122439
endloop
endfacet
facet normal 0.000000 0.000000 1.000000
outer loop
vertex 0.320981 -0.774916 0.122439
vertex 0.163635 -0.822647 0.122439
vertex 0.195090 -0.980785 0.122439
endloop
endfacet
facet normal 0.000000 0.000000 1.000000
outer loop
vertex 0.320981 -0.774916 0.122439
vertex 0.195090 -0.980785 0.122439
vertex 0.382683 -0.923880 0.122439
endloop
endfacet
facet normal 0.000000 0.000000 1.000000
outer loop
vertex 0.163635 -0.822647 0.122439
vertex 0.000000 -0.838763 0.122439
vertex 0.000000 -1.000000 0.122439
endloop
endfacet
facet normal -0.000000 0.000000 1.000000
outer loop
vertex 0.163635 -0.822647 0.122439
vertex 0.000000 -1.000000 0.122439
vertex 0.195090 -0.980785 0.122439
endloop
endfacet
facet normal 0.000000 0.000000 1.000000
outer loop
vertex 0.000000 -0.838763 0.122439
vertex -0.163635 -0.822647 0.122439
vertex -0.195090 -0.980785 0.122439
endloop
endfacet
facet normal 0.000000 0.000000 1.000000
outer loop
vertex 0.000000 -0.838763 0.122439
vertex -0.195090 -0.980785 0.122439
vertex 0.000000 -1.000000 0.122439
endloop
endfacet
facet normal 0.000000 0.000000 1.000000
outer loop
vertex -0.163635 -0.822647 0.122439
vertex -0.320981 -0.774916 0.122439
vertex -0.382683 -0.923880 0.122439
endloop
endfacet
facet normal -0.000000 0.000000 1.000000
outer loop
vertex -0.163635 -0.822647 0.122439
vertex -0.382683 -0.923880 0.122439
vertex -0.195090 -0.980785 0.122439
endloop
endfacet
facet normal 0.000000 0.000000 1.000000
outer loop
vertex -0.320981 -0.774916 0.122439
vertex -0.465992 -0.697406 0.122439
vertex -0.555570 -0.831470 0.122439
endloop
endfacet
facet normal 0.000000 0.000000 1.000000
outer loop
vertex -0.320981 -0.774916 0.122439
vertex -0.555570 -0.831470 0.122439
vertex -0.382683 -0.923880 0.122439
endloop
endfacet
facet normal 0.000000 0.000000 1.000000
outer loop
vertex -0.465992 -0.697406 0.122439
vertex -0.593095 -0.593095 0.122439
vertex -0.707107 -0.707107 0.122439
endloop
endfacet
facet normal 0.000000 0.000000 1.000000
outer loop
vertex -0.465992 -0.697406 0.122439
vertex -0.707107 -0.707107 0.122439
vertex -0.555570 -0.831470 0.122439
endloop
endfacet
facet normal 0.000000 0.000000 1.000000
outer loop
vertex -0.593095 -0.593095 0.122439
vertex -0.697406 -0.465992 0.122439
vertex -0.831470 -0.555570 0.122439
endloop
endfacet
facet normal 0.000000 0.000000 1.000000
outer loop
vertex -0.593095 -0.593095 0.122439
vertex -0.831470 -0.555570 0.122439
vertex -0.707107 -0.707107 0.122439
endloop
endfacet
facet normal 0.000000 0.000000 1.000000
outer loop
vertex -0.697406 -0.465992 0.122439
vertex -0.774916 -0.320981 0.122439
vertex -0.923880 -0.382683 0.122439
endloop
endfacet
facet normal 0.000000 0.000000 1.000000
outer loop
vertex -0.697406 -0.465992 0.122439
vertex -0.923880 -0.382683 0.122439
vertex -0.831470 -0.555570 0.122439
endloop
endfacet
facet normal -0.000000 0.000000 1.000000
outer loop
vertex -0.774916 -0.320981 0.122439
vertex -0.822647 -0.163635 0.122439
vertex -0.980785 -0.195090 0.122439
endloop
endfacet
facet normal 0.000000 0.000000 1.000000
outer loop
vertex -0.774916 -0.320981 0.122439
vertex -0.980785 -0.195090 0.122439
vertex -0.923880 -0.382683 0.122439
endloop
endfacet
facet normal 0.000000 0.000000 1.000000
outer loop
vertex -0.822647 -0.163635 0.122439
vertex -0.838763 0.000000 0.122439
vertex -1.000000 0.000000 0.122439
endloop
endfacet
facet normal 0.000000 0.000000 1.000000
outer loop
vertex -0.822647 -0.163635 0.122439
vertex -1.000000 0.000000 0.122439
vertex -0.980785 -0.195090 0.122439
endloop
endfacet
facet normal 0.000000 0.000000 1.000000
outer loop
vertex -0.838763 0.000000 0.122439
vertex -0.822647 0.163635 0.122439
vertex -0.980785 0.195090 0.122439
endloop
endfacet
facet normal 0.000000 0.000000 1.000000
outer loop
vertex -0.838763 0.000000 0.122439
vertex -0.980785 0.195090 0.122439
vertex -1.000000 0.000000 0.122439
endloop
endfacet
facet normal -0.000000 0.000000 1.000000
outer loop
vertex -0.822647 0.163635 0.122439
vertex -0.774916 0.320981 0.122439
vertex -0.923880 0.382683 0.122439
endloop
endfacet
facet normal 0.000000 0.000000 1.000000
outer loop
vertex -0.822647 0.163635 0.122439
vertex -0.923880 0.382683 0.122439
vertex -0.980785 0.195090 0.122439
endloop
endfacet
facet normal 0.000000 0.000000 1.000000
outer loop
vertex -0.774916 0.320981 0.122439
vertex -0.697406 0.465992 0.122439
vertex -0.831470 0.555570 0.122439
endloop
endfacet
facet normal 0.000000 0.000000 1.000000
outer loop
vertex -0.774916 0.320981 0.122439
vertex -0.831470 0.555570 0.122439
vertex -0.923880 0.382683 0.122439
endloop
endfacet
facet normal -0.000000 0.000000 1.000000
outer loop
vertex -0.697406 0.465992 0.122439
vertex -0.593095 0.593095 0.122439
vertex -0.707107 0.707107 0.122439
endloop
endfacet
facet normal 0.000000 0.000000 1.000000
outer loop
vertex -0.697406 0.465992 0.122439
vertex -0.707107 0.707107 0.122439
vertex -0.831470 0.555570 0.122439
endloop
endfacet
facet normal 0.000000 0.000000 1.000000
outer loop
vertex -0.593095 0.593095 0.122439
vertex -0.465992 0.697406 0.122439
vertex -0.555570 0.831470 0.122439
endloop
endfacet
facet normal 0.000000 0.000000 1.000000
outer loop
vertex -0.593095 0.593095 0.122439
vertex -0.555570 0.831470 0.122439
vertex -0.707107 0.707107 0.122439
endloop
endfacet
facet normal 0.000000 0.000000 1.000000
outer loop
vertex -0.465992 0.697406 0.122439
vertex -0.320981 0.774916 0.122439
vertex -0.382683 0.923880 0.122439
endloop
endfacet
facet normal 0.000000 0.000000 1.000000
outer loop
vertex -0.465992 0.697406 0.122439
vertex -0.382683 0.923880 0.122439
vertex -0.555570 0.831470 0.122439
endloop
endfacet
facet normal -0.000000 0.000000 1.000000
outer loop
vertex -0.320981 0.774916 0.122439
vertex -0.163635 0.822647 0.122439
vertex -0.195090 0.980785 0.122439
endloop
endfacet
facet normal 0.000000 0.000000 1.000000
outer loop
vertex -0.320981 0.774916 0.122439
vertex -0.195090 0.980785 0.122439
vertex -0.382683 0.923880 0.122439
endloop
endfacet
facet normal 0.000000 0.000000 1.000000
outer loop
vertex -0.163635 0.822647 0.122439
vertex 0.000000 0.838763 0.122439
vertex 0.000000 1.000000 0.122439
endloop
endfacet
facet normal 0.000000 0.000000 1.000000
outer loop
vertex -0.163635 0.822647 0.122439
vertex 0.000000 1.000000 0.122439
vertex -0.195090 0.980785 0.122439
endloop
endfacet
facet normal -0.000000 0.000000 1.000000
outer loop
vertex 0.000000 -0.838763 0.122439
vertex 0.163635 -0.822647 0.122439
vertex 0.163635 0.822647 0.122439
endloop
endfacet
facet normal 0.000000 0.000000 1.000000
outer loop
vertex 0.163635 0.822647 0.122439
vertex 0.000000 0.838763 0.122439
vertex -0.163635 0.822647 0.122439
endloop
endfacet
facet normal 0.000000 0.000000 1.000000
outer loop
vertex -0.163635 0.822647 0.122439
vertex -0.163635 -0.822647 0.122439
vertex 0.000000 -0.838763 0.122439
endloop
endfacet
facet normal 0.000000 0.000000 1.000000
outer loop
vertex 0.163635 0.822647 0.122439
vertex -0.163635 0.822647 0.122439
vertex 0.000000 -0.838763 0.122439
endloop
endfacet
facet normal 0.000000 0.000000 1.000000
outer loop
vertex -0.822647 -0.163635 0.122439
vertex 0.822647 -0.163635 0.122439
vertex 0.838763 0.000000 0.122439
endloop
endfacet
facet normal 0.000000 0.000000 1.000000
outer loop
vertex 0.838763 0.000000 0.122439
vertex 0.822647 0.163635 0.122439
vertex -0.822647 0.163635 0.122439
endloop
endfacet
facet normal 0.000000 0.000000 1.000000
outer loop
vertex -0.822647 0.163635 0.122439
vertex -0.838763 0.000000 0.122439
vertex -0.822647 -0.163635 0.122439
endloop
endfacet
facet normal 0.000000 0.000000 1.000000
outer loop
vertex 0.838763 0.000000 0.122439
vertex -0.822647 0.163635 0.122439
vertex -0.822647 -0.163635 0.122439
endloop
endfacet
facet normal 0.000000 0.000000 0.000000
outer loop
vertex 0.163635 0.822647 0.122439
vertex 0.000000 0.838763 0.122439
vertex 0.000000 0.838763 0.122439
endloop
endfacet
facet normal 0.000000 0.000000 0.000000
outer loop
vertex 0.163635 0.822647 0.122439
vertex 0.000000 0.838763 0.122439
vertex 0.163635 0.822647 0.122439
endloop
endfacet
facet normal 0.000000 0.000000 0.000000
outer loop
vertex -0.465992 0.697406 0.122439
vertex -0.593095 0.593095 0.122439
vertex -0.593095 0.593095 0.122439
endloop
endfacet
facet normal 0.000000 0.000000 0.000000
outer loop
vertex -0.465992 0.697406 0.122439
vertex -0.593095 0.593095 0.122439
vertex -0.465992 0.697406 0.122439
endloop
endfacet
facet normal 0.000000 0.000000 0.000000
outer loop
vertex 0.000000 -0.838763 0.122439
vertex 0.163635 -0.822647 0.122439
vertex 0.163635 -0.822647 0.122439
endloop
endfacet
facet normal 0.000000 0.000000 0.000000
outer loop
vertex 0.000000 -0.838763 0.122439
vertex 0.163635 -0.822647 0.122439
vertex 0.000000 -0.838763 0.122439
endloop
endfacet
facet normal 0.000000 0.000000 0.000000
outer loop
vertex 0.465992 0.697406 0.122439
vertex 0.320981 0.774916 0.122439
vertex 0.320981 0.774916 0.122439
endloop
endfacet
facet normal 0.000000 0.000000 0.000000
outer loop
vertex 0.465992 0.697406 0.122439
vertex 0.320981 0.774916 0.122439
vertex 0.465992 0.697406 0.122439
endloop
endfacet
facet normal 0.000000 0.000000 0.000000
outer loop
vertex -0.320981 0.774916 0.122439
vertex -0.465992 0.697406 0.122439
vertex -0.465992 0.697406 0.122439
endloop
endfacet
facet normal 0.000000 0.000000 0.000000
outer loop
vertex -0.320981 0.774916 0.122439
vertex -0.465992 0.697406 0.122439
vertex -0.320981 0.774916 0.122439
endloop
endfacet
facet normal 0.000000 0.000000 0.000000
outer loop
vertex -0.163635 -0.822647 0.122439
vertex 0.000000 -0.838763 0.122439
vertex 0.000000 -0.838763 0.122439
endloop
endfacet
facet normal 0.000000 0.000000 0.000000
outer loop
vertex -0.163635 -0.822647 0.122439
vertex 0.000000 -0.838763 0.122439
vertex -0.163635 -0.822647 0.122439
endloop
endfacet
facet normal 0.000000 0.000000 0.000000
outer loop
vertex 0.593095 0.593095 0.122439
vertex 0.465992 0.697406 0.122439
vertex 0.465992 0.697406 0.122439
endloop
endfacet
facet normal 0.000000 0.000000 0.000000
outer loop
vertex 0.593095 0.593095 0.122439
vertex 0.465992 0.697406 0.122439
vertex 0.593095 0.593095 0.122439
endloop
endfacet
facet normal 0.000000 0.000000 0.000000
outer loop
vertex -0.163635 0.822647 0.122439
vertex -0.320981 0.774916 0.122439
vertex -0.320981 0.774916 0.122439
endloop
endfacet
facet normal 0.000000 0.000000 0.000000
outer loop
vertex -0.163635 0.822647 0.122439
vertex -0.320981 0.774916 0.122439
vertex -0.163635 0.822647 0.122439
endloop
endfacet
facet normal 0.000000 0.000000 0.000000
outer loop
vertex -0.320981 -0.774916 0.122439
vertex -0.163635 -0.822647 0.122439
vertex -0.163635 -0.822647 0.122439
endloop
endfacet
facet normal 0.000000 0.000000 0.000000
outer loop
vertex -0.320981 -0.774916 0.122439
vertex -0.163635 -0.822647 0.122439
vertex -0.320981 -0.774916 0.122439
endloop
endfacet
facet normal 0.000000 0.000000 0.000000
outer loop
vertex 0.697406 0.465992 0.122439
vertex 0.593095 0.593095 0.122439
vertex 0.593095 0.593095 0.122439
endloop
endfacet
facet normal 0.000000 0.000000 0.000000
outer loop
vertex 0.697406 0.465992 0.122439
vertex 0.593095 0.593095 0.122439
vertex 0.697406 0.465992 0.122439
endloop
endfacet
facet normal 0.000000 0.000000 0.000000
outer loop
vertex 0.000000 0.838763 0.122439
vertex -0.163635 0.822647 0.122439
vertex -0.163635 0.822647 0.122439
endloop
endfacet
facet normal 0.000000 0.000000 0.000000
outer loop
vertex 0.000000 0.838763 0.122439
vertex -0.163635 0.822647 0.122439
vertex 0.000000 0.838763 0.122439
endloop
endfacet
facet normal 0.000000 0.000000 0.000000
outer loop
vertex -0.465992 -0.697406 0.122439
vertex -0.320981 -0.774916 0.122439
vertex -0.320981 -0.774916 0.122439
endloop
endfacet
facet normal 0.000000 0.000000 0.000000
outer loop
vertex -0.465992 -0.697406 0.122439
vertex -0.320981 -0.774916 0.122439
vertex -0.465992 -0.697406 0.122439
endloop
endfacet
facet normal 0.000000 0.000000 0.000000
outer loop
vertex 0.774916 0.320981 0.122439
vertex 0.697406 0.465992 0.122439
vertex 0.697406 0.465992 0.122439
endloop
endfacet
facet normal 0.000000 0.000000 0.000000
outer loop
vertex 0.774916 0.320981 0.122439
vertex 0.697406 0.465992 0.122439
vertex 0.774916 0.320981 0.122439
endloop
endfacet
facet normal 0.000000 0.000000 0.000000
outer loop
vertex -0.593095 -0.593095 0.122439
vertex -0.465992 -0.697406 0.122439
vertex -0.465992 -0.697406 0.122439
endloop
endfacet
facet normal 0.000000 0.000000 0.000000
outer loop
vertex -0.593095 -0.593095 0.122439
vertex -0.465992 -0.697406 0.122439
vertex -0.593095 -0.593095 0.122439
endloop
endfacet
facet normal 0.000000 0.000000 0.000000
outer loop
vertex 0.822647 0.163635 0.122439
vertex 0.774916 0.320981 0.122439
vertex 0.774916 0.320981 0.122439
endloop
endfacet
facet normal 0.000000 0.000000 0.000000
outer loop
vertex 0.822647 0.163635 0.122439
vertex 0.774916 0.320981 0.122439
vertex 0.822647 0.163635 0.122439
endloop
endfacet
facet normal 0.000000 0.000000 0.000000
outer loop
vertex -0.697406 -0.465992 0.122439
vertex -0.593095 -0.593095 0.122439
vertex -0.593095 -0.593095 0.122439
endloop
endfacet
facet normal 0.000000 0.000000 0.000000
outer loop
vertex -0.697406 -0.465992 0.122439
vertex -0.593095 -0.593095 0.122439
vertex -0.697406 -0.465992 0.122439
endloop
endfacet
facet normal 0.000000 0.000000 0.000000
outer loop
vertex 0.838763 0.000000 0.122439
vertex 0.822647 0.163635 0.122439
vertex 0.822647 0.163635 0.122439
endloop
endfacet
facet normal 0.000000 0.000000 0.000000
outer loop
vertex 0.838763 0.000000 0.122439
vertex 0.822647 0.163635 0.122439
vertex 0.838763 0.000000 0.122439
endloop
endfacet
facet normal 0.000000 0.000000 0.000000
outer loop
vertex -0.774916 -0.320981 0.122439
vertex -0.697406 -0.465992 0.122439
vertex -0.697406 -0.465992 0.122439
endloop
endfacet
facet normal 0.000000 0.000000 0.000000
outer loop
vertex -0.774916 -0.320981 0.122439
vertex -0.697406 -0.465992 0.122439
vertex -0.774916 -0.320981 0.122439
endloop
endfacet
facet normal 0.000000 0.000000 0.000000
outer loop
vertex 0.822647 -0.163635 0.122439
vertex 0.838763 0.000000 0.122439
vertex 0.838763 0.000000 0.122439
endloop
endfacet
facet normal 0.000000 0.000000 0.000000
outer loop
vertex 0.822647 -0.163635 0.122439
vertex 0.838763 0.000000 0.122439
vertex 0.822647 -0.163635 0.122439
endloop
endfacet
facet normal 0.000000 0.000000 0.000000
outer loop
vertex -0.822647 -0.163635 0.122439
vertex -0.774916 -0.320981 0.122439
vertex -0.774916 -0.320981 0.122439
endloop
endfacet
facet normal 0.000000 0.000000 0.000000
outer loop
vertex -0.822647 -0.163635 0.122439
vertex -0.774916 -0.320981 0.122439
vertex -0.822647 -0.163635 0.122439
endloop
endfacet
facet normal 0.000000 0.000000 0.000000
outer loop
vertex 0.774916 -0.320981 0.122439
vertex 0.822647 -0.163635 0.122439
vertex 0.822647 -0.163635 0.122439
endloop
endfacet
facet normal 0.000000 0.000000 0.000000
outer loop
vertex 0.774916 -0.320981 0.122439
vertex 0.822647 -0.163635 0.122439
vertex 0.774916 -0.320981 0.122439
endloop
endfacet
facet normal 0.000000 0.000000 0.000000
outer loop
vertex -0.838763 0.000000 0.122439
vertex -0.822647 -0.163635 0.122439
vertex -0.822647 -0.163635 0.122439
endloop
endfacet
facet normal 0.000000 0.000000 0.000000
outer loop
vertex -0.838763 0.000000 0.122439
vertex -0.822647 -0.163635 0.122439
vertex -0.838763 0.000000 0.122439
endloop
endfacet
facet normal 0.000000 0.000000 0.000000
outer loop
vertex 0.697406 -0.465992 0.122439
vertex 0.774916 -0.320981 0.122439
vertex 0.774916 -0.320981 0.122439
endloop
endfacet
facet normal 0.000000 0.000000 0.000000
outer loop
vertex 0.697406 -0.465992 0.122439
vertex 0.774916 -0.320981 0.122439
vertex 0.697406 -0.465992 0.122439
endloop
endfacet
facet normal 0.000000 0.000000 0.000000
outer loop
vertex -0.822647 0.163635 0.122439
vertex -0.838763 0.000000 0.122439
vertex -0.838763 0.000000 0.122439
endloop
endfacet
facet normal 0.000000 0.000000 0.000000
outer loop
vertex -0.822647 0.163635 0.122439
vertex -0.838763 0.000000 0.122439
vertex -0.822647 0.163635 0.122439
endloop
endfacet
facet normal 0.000000 0.000000 0.000000
outer loop
vertex 0.593095 -0.593095 0.122439
vertex 0.697406 -0.465992 0.122439
vertex 0.697406 -0.465992 0.122439
endloop
endfacet
facet normal 0.000000 0.000000 0.000000
outer loop
vertex 0.593095 -0.593095 0.122439
vertex 0.697406 -0.465992 0.122439
vertex 0.593095 -0.593095 0.122439
endloop
endfacet
facet normal 0.000000 0.000000 0.000000
outer loop
vertex -0.774916 0.320981 0.122439
vertex -0.822647 0.163635 0.122439
vertex -0.822647 0.163635 0.122439
endloop
endfacet
facet normal 0.000000 0.000000 0.000000
outer loop
vertex -0.774916 0.320981 0.122439
vertex -0.822647 0.163635 0.122439
vertex -0.774916 0.320981 0.122439
endloop
endfacet
facet normal 0.000000 0.000000 0.000000
outer loop
vertex 0.465992 -0.697406 0.122439
vertex 0.593095 -0.593095 0.122439
vertex 0.593095 -0.593095 0.122439
endloop
endfacet
facet normal 0.000000 0.000000 0.000000
outer loop
vertex 0.465992 -0.697406 0.122439
vertex 0.593095 -0.593095 0.122439
vertex 0.465992 -0.697406 0.122439
endloop
endfacet
facet normal 0.000000 0.000000 0.000000
outer loop
vertex -0.697406 0.465992 0.122439
vertex -0.774916 0.320981 0.122439
vertex -0.774916 0.320981 0.122439
endloop
endfacet
facet normal 0.000000 0.000000 0.000000
outer loop
vertex -0.697406 0.465992 0.122439
vertex -0.774916 0.320981 0.122439
vertex -0.697406 0.465992 0.122439
endloop
endfacet
facet normal 0.000000 0.000000 0.000000
outer loop
vertex 0.320981 -0.774916 0.122439
vertex 0.465992 -0.697406 0.122439
vertex 0.465992 -0.697406 0.122439
endloop
endfacet
facet normal 0.000000 0.000000 0.000000
outer loop
vertex 0.320981 -0.774916 0.122439
vertex 0.465992 -0.697406 0.122439
vertex 0.320981 -0.774916 0.122439
endloop
endfacet
facet normal 0.000000 0.000000 0.000000
outer loop
vertex 0.163635 0.822647 0.122439
vertex 0.000000 0.838763 0.122439
vertex 0.000000 0.838763 0.122439
endloop
endfacet
facet normal 0.000000 0.000000 0.000000
outer loop
vertex 0.163635 0.822647 0.122439
vertex 0.000000 0.838763 0.122439
vertex 0.163635 0.822647 0.122439
endloop
endfacet
facet normal 0.000000 0.000000 0.000000
outer loop
vertex -0.593095 0.593095 0.122439
vertex -0.697406 0.465992 0.122439
vertex -0.697406 0.465992 0.122439
endloop
endfacet
facet normal 0.000000 0.000000 0.000000
outer loop
vertex -0.593095 0.593095 0.122439
vertex -0.697406 0.465992 0.122439
vertex -0.593095 0.593095 0.122439
endloop
endfacet
facet normal 0.000000 0.000000 0.000000
outer loop
vertex 0.163635 -0.822647 0.122439
vertex 0.320981 -0.774916 0.122439
vertex 0.320981 -0.774916 0.122439
endloop
endfacet
facet normal 0.000000 0.000000 0.000000
outer loop
vertex 0.163635 -0.822647 0.122439
vertex 0.320981 -0.774916 0.122439
vertex 0.163635 -0.822647 0.122439
endloop
endfacet
facet normal 0.000000 0.000000 0.000000
outer loop
vertex -0.593095 0.593095 0.122439
vertex -0.697406 0.465992 0.122439
vertex -0.697406 0.465992 0.122439
endloop
endfacet
facet normal 0.000000 0.000000 0.000000
outer loop
vertex -0.593095 0.593095 0.122439
vertex -0.697406 0.465992 0.122439
vertex -0.593095 0.593095 0.122439
endloop
endfacet
facet normal 0.000000 0.000000 0.000000
outer loop
vertex 0.163635 -0.822647 0.122439
vertex 0.320981 -0.774916 0.122439
vertex 0.320981 -0.774916 0.122439
endloop
endfacet
facet normal 0.000000 0.000000 0.000000
outer loop
vertex 0.163635 -0.822647 0.122439
vertex 0.320981 -0.774916 0.122439
vertex 0.163635 -0.822647 0.122439
endloop
endfacet
facet normal 0.000000 0.000000 0.000000
outer loop
vertex 0.320981 0.774916 0.122439
vertex 0.163635 0.822647 0.122439
vertex 0.163635 0.822647 0.122439
endloop
endfacet
facet normal 0.000000 0.000000 0.000000
outer loop
vertex 0.320981 0.774916 0.122439
vertex 0.163635 0.822647 0.122439
vertex 0.320981 0.774916 0.122439
endloop
endfacet
facet normal 0.000000 0.000000 0.000000
outer loop
vertex -0.465992 0.697406 0.122439
vertex -0.593095 0.593095 0.122439
vertex -0.593095 0.593095 0.122439
endloop
endfacet
facet normal 0.000000 0.000000 0.000000
outer loop
vertex -0.465992 0.697406 0.122439
vertex -0.593095 0.593095 0.122439
vertex -0.465992 0.697406 0.122439
endloop
endfacet
facet normal 0.000000 0.000000 0.000000
outer loop
vertex 0.000000 -0.838763 0.122439
vertex 0.163635 -0.822647 0.122439
vertex 0.163635 -0.822647 0.122439
endloop
endfacet
facet normal 0.000000 0.000000 0.000000
outer loop
vertex 0.000000 -0.838763 0.122439
vertex 0.163635 -0.822647 0.122439
vertex 0.000000 -0.838763 0.122439
endloop
endfacet
facet normal 0.000000 0.000000 0.000000
outer loop
vertex 0.465992 0.697406 0.122439
vertex 0.320981 0.774916 0.122439
vertex 0.320981 0.774916 0.122439
endloop
endfacet
facet normal 0.000000 0.000000 0.000000
outer loop
vertex 0.465992 0.697406 0.122439
vertex 0.320981 0.774916 0.122439
vertex 0.465992 0.697406 0.122439
endloop
endfacet
facet normal 0.000000 0.000000 0.000000
outer loop
vertex -0.320981 0.774916 0.122439
vertex -0.465992 0.697406 0.122439
vertex -0.465992 0.697406 0.122439
endloop
endfacet
facet normal 0.000000 0.000000 0.000000
outer loop
vertex -0.320981 0.774916 0.122439
vertex -0.465992 0.697406 0.122439
vertex -0.320981 0.774916 0.122439
endloop
endfacet
facet normal 0.000000 0.000000 0.000000
outer loop
vertex -0.163635 -0.822647 0.122439
vertex 0.000000 -0.838763 0.122439
vertex 0.000000 -0.838763 0.122439
endloop
endfacet
facet normal 0.000000 0.000000 0.000000
outer loop
vertex -0.163635 -0.822647 0.122439
vertex 0.000000 -0.838763 0.122439
vertex -0.163635 -0.822647 0.122439
endloop
endfacet
facet normal 0.000000 0.000000 0.000000
outer loop
vertex 0.593095 0.593095 0.122439
vertex 0.465992 0.697406 0.122439
vertex 0.465992 0.697406 0.122439
endloop
endfacet
facet normal 0.000000 0.000000 0.000000
outer loop
vertex 0.593095 0.593095 0.122439
vertex 0.465992 0.697406 0.122439
vertex 0.593095 0.593095 0.122439
endloop
endfacet
facet normal 0.000000 0.000000 0.000000
outer loop
vertex -0.163635 0.822647 0.122439
vertex -0.320981 0.774916 0.122439
vertex -0.320981 0.774916 0.122439
endloop
endfacet
facet normal 0.000000 0.000000 0.000000
outer loop
vertex -0.163635 0.822647 0.122439
vertex -0.320981 0.774916 0.122439
vertex -0.163635 0.822647 0.122439
endloop
endfacet
facet normal 0.000000 0.000000 0.000000
outer loop
vertex -0.320981 -0.774916 0.122439
vertex -0.163635 -0.822647 0.122439
vertex -0.163635 -0.822647 0.122439
endloop
endfacet
facet normal 0.000000 0.000000 0.000000
outer loop
vertex -0.320981 -0.774916 0.122439
vertex -0.163635 -0.822647 0.122439
vertex -0.320981 -0.774916 0.122439
endloop
endfacet
facet normal 0.000000 0.000000 0.000000
outer loop
vertex 0.697406 0.465992 0.122439
vertex 0.593095 0.593095 0.122439
vertex 0.593095 0.593095 0.122439
endloop
endfacet
facet normal 0.000000 0.000000 0.000000
outer loop
vertex 0.697406 0.465992 0.122439
vertex 0.593095 0.593095 0.122439
vertex 0.697406 0.465992 0.122439
endloop
endfacet
facet normal 0.000000 0.000000 0.000000
outer loop
vertex 0.000000 0.838763 0.122439
vertex -0.163635 0.822647 0.122439
vertex -0.163635 0.822647 0.122439
endloop
endfacet
facet normal 0.000000 0.000000 0.000000
outer loop
vertex 0.000000 0.838763 0.122439
vertex -0.163635 0.822647 0.122439
vertex 0.000000 0.838763 0.122439
endloop
endfacet
facet normal 0.000000 0.000000 0.000000
outer loop
vertex -0.465992 -0.697406 0.122439
vertex -0.320981 -0.774916 0.122439
vertex -0.320981 -0.774916 0.122439
endloop
endfacet
facet normal 0.000000 0.000000 0.000000
outer loop
vertex -0.465992 -0.697406 0.122439
vertex -0.320981 -0.774916 0.122439
vertex -0.465992 -0.697406 0.122439
endloop
endfacet
facet normal 0.000000 0.000000 0.000000
outer loop
vertex 0.774916 0.320981 0.122439
vertex 0.697406 0.465992 0.122439
vertex 0.697406 0.465992 0.122439
endloop
endfacet
facet normal 0.000000 0.000000 0.000000
outer loop
vertex 0.774916 0.320981 0.122439
vertex 0.697406 0.465992 0.122439
vertex 0.774916 0.320981 0.122439
endloop
endfacet
facet normal 0.000000 0.000000 0.000000
outer loop
vertex -0.593095 -0.593095 0.122439
vertex -0.465992 -0.697406 0.122439
vertex -0.465992 -0.697406 0.122439
endloop
endfacet
facet normal 0.000000 0.000000 0.000000
outer loop
vertex -0.593095 -0.593095 0.122439
vertex -0.465992 -0.697406 0.122439
vertex -0.593095 -0.593095 0.122439
endloop
endfacet
facet normal 0.000000 0.000000 0.000000
outer loop
vertex 0.822647 0.163635 0.122439
vertex 0.774916 0.320981 0.122439
vertex 0.774916 0.320981 0.122439
endloop
endfacet
facet normal 0.000000 0.000000 0.000000
outer loop
vertex 0.822647 0.163635 0.122439
vertex 0.774916 0.320981 0.122439
vertex 0.822647 0.163635 0.122439
endloop
endfacet
facet normal 0.000000 0.000000 0.000000
outer loop
vertex -0.697406 -0.465992 0.122439
vertex -0.593095 -0.593095 0.122439
vertex -0.593095 -0.593095 0.122439
endloop
endfacet
facet normal 0.000000 0.000000 0.000000
outer loop
vertex -0.697406 -0.465992 0.122439
vertex -0.593095 -0.593095 0.122439
vertex -0.697406 -0.465992 0.122439
endloop
endfacet
facet normal 0.000000 0.000000 0.000000
outer loop
vertex 0.838763 0.000000 0.122439
vertex 0.822647 0.163635 0.122439
vertex 0.822647 0.163635 0.122439
endloop
endfacet
facet normal 0.000000 0.000000 0.000000
outer loop
vertex 0.838763 0.000000 0.122439
vertex 0.822647 0.163635 0.122439
vertex 0.838763 0.000000 0.122439
endloop
endfacet
facet normal 0.000000 0.000000 0.000000
outer loop
vertex -0.774916 -0.320981 0.122439
vertex -0.697406 -0.465992 0.122439
vertex -0.697406 -0.465992 0.122439
endloop
endfacet
facet normal 0.000000 0.000000 0.000000
outer loop
vertex -0.774916 -0.320981 0.122439
vertex -0.697406 -0.465992 0.122439
vertex -0.774916 -0.320981 0.122439
endloop
endfacet
facet normal 0.000000 0.000000 0.000000
outer loop
vertex 0.822647 -0.163635 0.122439
vertex 0.838763 0.000000 0.122439
vertex 0.838763 0.000000 0.122439
endloop
endfacet
facet normal 0.000000 0.000000 0.000000
outer loop
vertex 0.822647 -0.163635 0.122439
vertex 0.838763 0.000000 0.122439
vertex 0.822647 -0.163635 0.122439
endloop
endfacet
facet normal 0.000000 0.000000 0.000000
outer loop
vertex -0.822647 -0.163635 0.122439
vertex -0.774916 -0.320981 0.122439
vertex -0.774916 -0.320981 0.122439
endloop
endfacet
facet normal 0.000000 0.000000 0.000000
outer loop
vertex -0.822647 -0.163635 0.122439
vertex -0.774916 -0.320981 0.122439
vertex -0.822647 -0.163635 0.122439
endloop
endfacet
facet normal 0.000000 0.000000 0.000000
outer loop
vertex 0.774916 -0.320981 0.122439
vertex 0.822647 -0.163635 0.122439
vertex 0.822647 -0.163635 0.122439
endloop
endfacet
facet normal 0.000000 0.000000 0.000000
outer loop
vertex 0.774916 -0.320981 0.122439
vertex 0.822647 -0.163635 0.122439
vertex 0.774916 -0.320981 0.122439
endloop
endfacet
facet normal 0.000000 0.000000 0.000000
outer loop
vertex -0.838763 0.000000 0.122439
vertex -0.822647 -0.163635 0.122439
vertex -0.822647 -0.163635 0.122439
endloop
endfacet
facet normal 0.000000 0.000000 0.000000
outer loop
vertex -0.838763 0.000000 0.122439
vertex -0.822647 -0.163635 0.122439
vertex -0.838763 0.000000 0.122439
endloop
endfacet
facet normal 0.000000 0.000000 0.000000
outer loop
vertex 0.697406 -0.465992 0.122439
vertex 0.774916 -0.320981 0.122439
vertex 0.774916 -0.320981 0.122439
endloop
endfacet
facet normal 0.000000 0.000000 0.000000
outer loop
vertex 0.697406 -0.465992 0.122439
vertex 0.774916 -0.320981 0.122439
vertex 0.697406 -0.465992 0.122439
endloop
endfacet
facet normal 0.000000 0.000000 0.000000
outer loop
vertex -0.822647 0.163635 0.122439
vertex -0.838763 0.000000 0.122439
vertex -0.838763 0.000000 0.122439
endloop
endfacet
facet normal 0.000000 0.000000 0.000000
outer loop
vertex -0.822647 0.163635 0.122439
vertex -0.838763 0.000000 0.122439
vertex -0.822647 0.163635 0.122439
endloop
endfacet
facet normal 0.000000 0.000000 0.000000
outer loop
vertex 0.593095 -0.593095 0.122439
vertex 0.697406 -0.465992 0.122439
vertex 0.697406 -0.465992 0.122439
endloop
endfacet
facet normal 0.000000 0.000000 0.000000
outer loop
vertex 0.593095 -0.593095 0.122439
vertex 0.697406 -0.465992 0.122439
vertex 0.593095 -0.593095 0.122439
endloop
endfacet
facet normal 0.000000 0.000000 0.000000
outer loop
vertex -0.774916 0.320981 0.122439
vertex -0.822647 0.163635 0.122439
vertex -0.822647 0.163635 0.122439
endloop
endfacet
facet normal 0.000000 0.000000 0.000000
outer loop
vertex -0.774916 0.320981 0.122439
vertex -0.822647 0.163635 0.122439
vertex -0.774916 0.320981 0.122439
endloop
endfacet
facet normal 0.000000 0.000000 0.000000
outer loop
vertex 0.465992 -0.697406 0.122439
vertex 0.593095 -0.593095 0.122439
vertex 0.593095 -0.593095 0.122439
endloop
endfacet
facet normal 0.000000 0.000000 0.000000
outer loop
vertex 0.465992 -0.697406 0.122439
vertex 0.593095 -0.593095 0.122439
vertex 0.465992 -0.697406 0.122439
endloop
endfacet
facet normal 0.000000 0.000000 0.000000
outer loop
vertex -0.697406 0.465992 0.122439
vertex -0.774916 0.320981 0.122439
vertex -0.774916 0.320981 0.122439
endloop
endfacet
facet normal 0.000000 0.000000 0.000000
outer loop
vertex -0.697406 0.465992 0.122439
vertex -0.774916 0.320981 0.122439
vertex -0.697406 0.465992 0.122439
endloop
endfacet
facet normal 0.000000 0.000000 0.000000
outer loop
vertex 0.320981 -0.774916 0.122439
vertex 0.465992 -0.697406 0.122439
vertex 0.465992 -0.697406 0.122439
endloop
endfacet
facet normal 0.000000 0.000000 0.000000
outer loop
vertex 0.320981 -0.774916 0.122439
vertex 0.465992 -0.697406 0.122439
vertex 0.320981 -0.774916 0.122439
endloop
endfacet
facet normal 0.000000 -0.000000 -1.000000
outer loop
vertex 0.160679 0.807790 -0.122439
vertex 0.000000 0.823615 -0.122439
vertex 0.000000 1.000000 -0.122439
endloop
endfacet
facet normal -0.000000 -0.000000 -1.000000
outer loop
vertex 0.160679 0.807790 -0.122439
vertex 0.000000 1.000000 -0.122439
vertex 0.195090 0.980785 -0.122439
endloop
endfacet
facet normal 0.000000 -0.000000 -1.000000
outer loop
vertex 0.315184 0.760921 -0.122439
vertex 0.160679 0.807790 -0.122439
vertex 0.195090 0.980785 -0.122439
endloop
endfacet
facet normal 0.000000 -0.000000 -1.000000
outer loop
vertex 0.315184 0.760921 -0.122439
vertex 0.195090 0.980785 -0.122439
vertex 0.382683 0.923880 -0.122439
endloop
endfacet
facet normal -0.000000 -0.000000 -1.000000
outer loop
vertex 0.457576 0.684811 -0.122439
vertex 0.315184 0.760921 -0.122439
vertex 0.382683 0.923880 -0.122439
endloop
endfacet
facet normal 0.000000 -0.000000 -1.000000
outer loop
vertex 0.457576 0.684811 -0.122439
vertex 0.382683 0.923880 -0.122439
vertex 0.555570 0.831470 -0.122439
endloop
endfacet
facet normal 0.000000 -0.000000 -1.000000
outer loop
vertex 0.582384 0.582384 -0.122439
vertex 0.457576 0.684811 -0.122439
vertex 0.555570 0.831470 -0.122439
endloop
endfacet
facet normal 0.000000 -0.000000 -1.000000
outer loop
vertex 0.582384 0.582384 -0.122439
vertex 0.555570 0.831470 -0.122439
vertex 0.707107 0.707107 -0.122439
endloop
endfacet
facet normal 0.000000 -0.000000 -1.000000
outer loop
vertex 0.684811 0.457576 -0.122439
vertex 0.582384 0.582384 -0.122439
vertex 0.707107 0.707107 -0.122439
endloop
endfacet
facet normal 0.000000 -0.000000 -1.000000
outer loop
vertex 0.684811 0.457576 -0.122439
vertex 0.707107 0.707107 -0.122439
vertex 0.831470 0.555570 -0.122439
endloop
endfacet
facet normal -0.000000 -0.000000 -1.000000
outer loop
vertex 0.760921 0.315184 -0.122439
vertex 0.684811 0.457576 -0.122439
vertex 0.831470 0.555570 -0.122439
endloop
endfacet
facet normal -0.000000 -0.000000 -1.000000
outer loop
vertex 0.760921 0.315184 -0.122439
vertex 0.831470 0.555570 -0.122439
vertex 0.923880 0.382683 -0.122439
endloop
endfacet
facet normal 0.000000 -0.000000 -1.000000
outer loop
vertex 0.807790 0.160679 -0.122439
vertex 0.760921 0.315184 -0.122439
vertex 0.923880 0.382683 -0.122439
endloop
endfacet
facet normal 0.000000 -0.000000 -1.000000
outer loop
vertex 0.807790 0.160679 -0.122439
vertex 0.923880 0.382683 -0.122439
vertex 0.980785 0.195090 -0.122439
endloop
endfacet
facet normal -0.000000 -0.000000 -1.000000
outer loop
vertex 0.823615 0.000000 -0.122439
vertex 0.807790 0.160679 -0.122439
vertex 0.980785 0.195090 -0.122439
endloop
endfacet
facet normal 0.000000 -0.000000 -1.000000
outer loop
vertex 0.823615 0.000000 -0.122439
vertex 0.980785 0.195090 -0.122439
vertex 1.000000 0.000000 -0.122439
endloop
endfacet
facet normal -0.000000 0.000000 -1.000000
outer loop
vertex 0.807790 -0.160679 -0.122439
vertex 0.823615 0.000000 -0.122439
vertex 1.000000 0.000000 -0.122439
endloop
endfacet
facet normal 0.000000 0.000000 -1.000000
outer loop
vertex 0.807790 -0.160679 -0.122439
vertex 1.000000 0.000000 -0.122439
vertex 0.980785 -0.195090 -0.122439
endloop
endfacet
facet normal 0.000000 0.000000 -1.000000
outer loop
vertex 0.760921 -0.315184 -0.122439
vertex 0.807790 -0.160679 -0.122439
vertex 0.980785 -0.195090 -0.122439
endloop
endfacet
facet normal 0.000000 0.000000 -1.000000
outer loop
vertex 0.760921 -0.315184 -0.122439
vertex 0.980785 -0.195090 -0.122439
vertex 0.923880 -0.382683 -0.122439
endloop
endfacet
facet normal -0.000000 0.000000 -1.000000
outer loop
vertex 0.684811 -0.457576 -0.122439
vertex 0.760921 -0.315184 -0.122439
vertex 0.923880 -0.382683 -0.122439
endloop
endfacet
facet normal 0.000000 0.000000 -1.000000
outer loop
vertex 0.684811 -0.457576 -0.122439
vertex 0.923880 -0.382683 -0.122439
vertex 0.831470 -0.555570 -0.122439
endloop
endfacet
facet normal -0.000000 0.000000 -1.000000
outer loop
vertex 0.582384 -0.582384 -0.122439
vertex 0.684811 -0.457576 -0.122439
vertex 0.831470 -0.555570 -0.122439
endloop
endfacet
facet normal 0.000000 0.000000 -1.000000
outer loop
vertex 0.582384 -0.582384 -0.122439
vertex 0.831470 -0.555570 -0.122439
vertex 0.707107 -0.707107 -0.122439
endloop
endfacet
facet normal -0.000000 0.000000 -1.000000
outer loop
vertex 0.457576 -0.684811 -0.122439
vertex 0.582384 -0.582384 -0.122439
vertex 0.707107 -0.707107 -0.122439
endloop
endfacet
facet normal 0.000000 0.000000 -1.000000
outer loop
vertex 0.457576 -0.684811 -0.122439
vertex 0.707107 -0.707107 -0.122439
vertex 0.555570 -0.831470 -0.122439
endloop
endfacet
facet normal 0.000000 0.000000 -1.000000
outer loop
vertex 0.315184 -0.760921 -0.122439
vertex 0.457576 -0.684811 -0.122439
vertex 0.555570 -0.831470 -0.122439
endloop
endfacet
facet normal 0.000000 0.000000 -1.000000
outer loop
vertex 0.315184 -0.760921 -0.122439
vertex 0.555570 -0.831470 -0.122439
vertex 0.382683 -0.923880 -0.122439
endloop
endfacet
facet normal 0.000000 0.000000 -1.000000
outer loop
vertex 0.160679 -0.807790 -0.122439
vertex 0.315184 -0.760921 -0.122439
vertex 0.382683 -0.923880 -0.122439
endloop
endfacet
facet normal 0.000000 0.000000 -1.000000
outer loop
vertex 0.160679 -0.807790 -0.122439
vertex 0.382683 -0.923880 -0.122439
vertex 0.195090 -0.980785 -0.122439
endloop
endfacet
facet normal 0.000000 0.000000 -1.000000
outer loop
vertex 0.000000 -0.823615 -0.122439
vertex 0.160679 -0.807790 -0.122439
vertex 0.195090 -0.980785 -0.122439
endloop
endfacet
facet normal -0.000000 0.000000 -1.000000
outer loop
vertex 0.000000 -0.823615 -0.122439
vertex 0.195090 -0.980785 -0.122439
vertex 0.000000 -1.000000 -0.122439
endloop
endfacet
facet normal 0.000000 0.000000 -1.000000
outer loop
vertex -0.160679 -0.807790 -0.122439
vertex 0.000000 -0.823615 -0.122439
vertex 0.000000 -1.000000 -0.122439
endloop
endfacet
facet normal 0.000000 0.000000 -1.000000
outer loop
vertex -0.160679 -0.807790 -0.122439
vertex 0.000000 -1.000000 -0.122439
vertex -0.195090 -0.980785 -0.122439
endloop
endfacet
facet normal 0.000000 0.000000 -1.000000
outer loop
vertex -0.315184 -0.760921 -0.122439
vertex -0.160679 -0.807790 -0.122439
vertex -0.195090 -0.980785 -0.122439
endloop
endfacet
facet normal 0.000000 0.000000 -1.000000
outer loop
vertex -0.315184 -0.760921 -0.122439
vertex -0.195090 -0.980785 -0.122439
vertex -0.382683 -0.923880 -0.122439
endloop
endfacet
facet normal 0.000000 0.000000 -1.000000
outer loop
vertex -0.457576 -0.684811 -0.122439
vertex -0.315184 -0.760921 -0.122439
vertex -0.382683 -0.923880 -0.122439
endloop
endfacet
facet normal 0.000000 0.000000 -1.000000
outer loop
vertex -0.457576 -0.684811 -0.122439
vertex -0.382683 -0.923880 -0.122439
vertex -0.555570 -0.831470 -0.122439
endloop
endfacet
facet normal 0.000000 0.000000 -1.000000
outer loop
vertex -0.582384 -0.582384 -0.122439
vertex -0.457576 -0.684811 -0.122439
vertex -0.555570 -0.831470 -0.122439
endloop
endfacet
facet normal 0.000000 0.000000 -1.000000
outer loop
vertex -0.582384 -0.582384 -0.122439
vertex -0.555570 -0.831470 -0.122439
vertex -0.707107 -0.707107 -0.122439
endloop
endfacet
facet normal 0.000000 0.000000 -1.000000
outer loop
vertex -0.684811 -0.457576 -0.122439
vertex -0.582384 -0.582384 -0.122439
vertex -0.707107 -0.707107 -0.122439
endloop
endfacet
facet normal 0.000000 0.000000 -1.000000
outer loop
vertex -0.684811 -0.457576 -0.122439
vertex -0.707107 -0.707107 -0.122439
vertex -0.831470 -0.555570 -0.122439
endloop
endfacet
facet normal 0.000000 0.000000 -1.000000
outer loop
vertex -0.760921 -0.315184 -0.122439
vertex -0.684811 -0.457576 -0.122439
vertex -0.831470 -0.555570 -0.122439
endloop
endfacet
facet normal 0.000000 0.000000 -1.000000
outer loop
vertex -0.760921 -0.315184 -0.122439
vertex -0.831470 -0.555570 -0.122439
vertex -0.923880 -0.382683 -0.122439
endloop
endfacet
facet normal 0.000000 0.000000 -1.000000
outer loop
vertex -0.807790 -0.160679 -0.122439
vertex -0.760921 -0.315184 -0.122439
vertex -0.923880 -0.382683 -0.122439
endloop
endfacet
facet normal 0.000000 0.000000 -1.000000
outer loop
vertex -0.807790 -0.160679 -0.122439
vertex -0.923880 -0.382683 -0.122439
vertex -0.980785 -0.195090 -0.122439
endloop
endfacet
facet normal 0.000000 0.000000 -1.000000
outer loop
vertex -0.823615 0.000000 -0.122439
vertex -0.807790 -0.160679 -0.122439
vertex -0.980785 -0.195090 -0.122439
endloop
endfacet
facet normal 0.000000 0.000000 -1.000000
outer loop
vertex -0.823615 0.000000 -0.122439
vertex -0.980785 -0.195090 -0.122439
vertex -1.000000 0.000000 -0.122439
endloop
endfacet
facet normal 0.000000 -0.000000 -1.000000
outer loop
vertex -0.807790 0.160679 -0.122439
vertex -0.823615 0.000000 -0.122439
vertex -1.000000 0.000000 -0.122439
endloop
endfacet
facet normal 0.000000 -0.000000 -1.000000
outer loop
vertex -0.807790 0.160679 -0.122439
vertex -1.000000 0.000000 -0.122439
vertex -0.980785 0.195090 -0.122439
endloop
endfacet
facet normal 0.000000 -0.000000 -1.000000
outer loop
vertex -0.760921 0.315184 -0.122439
vertex -0.807790 0.160679 -0.122439
vertex -0.980785 0.195090 -0.122439
endloop
endfacet
facet normal 0.000000 -0.000000 -1.000000
outer loop
vertex -0.760921 0.315184 -0.122439
vertex -0.980785 0.195090 -0.122439
vertex -0.923880 0.382683 -0.122439
endloop
endfacet
facet normal 0.000000 -0.000000 -1.000000
outer loop
vertex -0.684811 0.457576 -0.122439
vertex -0.760921 0.315184 -0.122439
vertex -0.923880 0.382683 -0.122439
endloop
endfacet
facet normal 0.000000 -0.000000 -1.000000
outer loop
vertex -0.684811 0.457576 -0.122439
vertex -0.923880 0.382683 -0.122439
vertex -0.831470 0.555570 -0.122439
endloop
endfacet
facet normal 0.000000 -0.000000 -1.000000
outer loop
vertex -0.582384 0.582384 -0.122439
vertex -0.684811 0.457576 -0.122439
vertex -0.831470 0.555570 -0.122439
endloop
endfacet
facet normal 0.000000 -0.000000 -1.000000
outer loop
vertex -0.582384 0.582384 -0.122439
vertex -0.831470 0.555570 -0.122439
vertex -0.707107 0.707107 -0.122439
endloop
endfacet
facet normal 0.000000 -0.000000 -1.000000
outer loop
vertex -0.457576 0.684811 -0.122439
vertex -0.582384 0.582384 -0.122439
vertex -0.707107 0.707107 -0.122439
endloop
endfacet
facet normal -0.000000 -0.000000 -1.000000
outer loop
vertex -0.457576 0.684811 -0.122439
vertex -0.707107 0.707107 -0.122439
vertex -0.555570 0.831470 -0.122439
endloop
endfacet
facet normal 0.000000 -0.000000 -1.000000
outer loop
vertex -0.315184 0.760921 -0.122439
vertex -0.457576 0.684811 -0.122439
vertex -0.555570 0.831470 -0.122439
endloop
endfacet
facet normal 0.000000 -0.000000 -1.000000
outer loop
vertex -0.315184 0.760921 -0.122439
vertex -0.555570 0.831470 -0.122439
vertex -0.382683 0.923880 -0.122439
endloop
endfacet
facet normal 0.000000 -0.000000 -1.000000
outer loop
vertex -0.160679 0.807790 -0.122439
vertex -0.315184 0.760921 -0.122439
vertex -0.382683 0.923880 -0.122439
endloop
endfacet
facet normal 0.000000 -0.000000 -1.000000
outer loop
vertex -0.160679 0.807790 -0.122439
vertex -0.382683 0.923880 -0.122439
vertex -0.195090 0.980785 -0.122439
endloop
endfacet
facet normal 0.000000 -0.000000 -1.000000
outer loop
vertex 0.000000 0.823615 -0.122439
vertex -0.160679 0.807790 -0.122439
vertex -0.195090 0.980785 -0.122439
endloop
endfacet
facet normal 0.000000 -0.000000 -1.000000
outer loop
vertex 0.000000 0.823615 -0.122439
vertex -0.195090 0.980785 -0.122439
vertex 0.000000 1.000000 -0.122439
endloop
endfacet
facet normal 0.000000 0.000000 -1.000000
outer loop
vertex -0.160679 -0.807790 -0.122439
vertex -0.160679 0.807790 -0.122439
vertex 0.000000 0.823615 -0.122439
endloop
endfacet
facet normal -0.000000 0.000000 -1.000000
outer loop
vertex 0.000000 0.823615 -0.122439
vertex 0.160679 0.807790 -0.122439
vertex 0.160679 -0.807790 -0.122439
endloop
endfacet
facet normal 0.000000 0.000000 -1.000000
outer loop
vertex 0.160679 -0.807790 -0.122439
vertex 0.000000 -0.823615 -0.122439
vertex -0.160679 -0.807790 -0.122439
endloop
endfacet
facet normal 0.000000 0.000000 -1.000000
outer loop
vertex 0.000000 0.823615 -0.122439
vertex 0.160679 -0.807790 -0.122439
vertex -0.160679 -0.807790 -0.122439
endloop
endfacet
facet normal 0.000000 0.000000 -1.000000
outer loop
vertex -0.823615 0.000000 -0.122439
vertex -0.807790 0.160679 -0.122439
vertex 0.807790 0.160679 -0.122439
endloop
endfacet
facet normal 0.000000 0.000000 -1.000000
outer loop
vertex 0.807790 0.160679 -0.122439
vertex 0.823615 0.000000 -0.122439
vertex 0.807790 -0.160679 -0.122439
endloop
endfacet
facet normal 0.000000 0.000000 -1.000000
outer loop
vertex 0.807790 -0.160679 -0.122439
vertex -0.807790 -0.160679 -0.122439
vertex -0.823615 0.000000 -0.122439
endloop
endfacet
facet normal 0.000000 0.000000 -1.000000
outer loop
vertex 0.807790 0.160679 -0.122439
vertex 0.807790 -0.160679 -0.122439
vertex -0.823615 0.000000 -0.122439
endloop
endfacet
facet normal -0.880255 -0.470506 0.061445
outer loop
vertex 0.774916 0.320981 0.122439
vertex 0.697406 0.465992 0.122439
vertex 0.684811 0.457576 -0.122439
endloop
endfacet
facet normal -0.880255 -0.470506 0.061445
outer loop
vertex 0.774916 0.320981 0.122439
vertex 0.684811 0.457576 -0.122439
vertex 0.760921 0.315184 -0.122439
endloop
endfacet
facet normal -0.771550 -0.633195 0.061446
outer loop
vertex 0.697406 0.465992 0.122439
vertex 0.593095 0.593095 0.122439
vertex 0.582384 0.582384 -0.122439
endloop
endfacet
facet normal -0.771550 -0.633195 0.061445
outer loop
vertex 0.697406 0.465992 0.122439
vertex 0.582384 0.582384 -0.122439
vertex 0.684811 0.457576 -0.122439
endloop
endfacet
facet normal -0.633194 -0.771550 0.061445
outer loop
vertex 0.593095 0.593095 0.122439
vertex 0.465992 0.697406 0.122439
vertex 0.457576 0.684811 -0.122439
endloop
endfacet
facet normal -0.633195 -0.771550 0.061445
outer loop
vertex 0.593095 0.593095 0.122439
vertex 0.457576 0.684811 -0.122439
vertex 0.582384 0.582384 -0.122439
endloop
endfacet
facet normal -0.470506 -0.880255 0.061446
outer loop
vertex 0.465992 0.697406 0.122439
vertex 0.320981 0.774916 0.122439
vertex 0.315184 0.760921 -0.122439
endloop
endfacet
facet normal -0.470506 -0.880255 0.061446
outer loop
vertex 0.465992 0.697406 0.122439
vertex 0.315184 0.760921 -0.122439
vertex 0.457576 0.684811 -0.122439
endloop
endfacet
facet normal -0.289736 -0.955132 0.061445
outer loop
vertex 0.320981 0.774916 0.122439
vertex 0.163635 0.822647 0.122439
vertex 0.160679 0.807790 -0.122439
endloop
endfacet
facet normal -0.289736 -0.955132 0.061446
outer loop
vertex 0.320981 0.774916 0.122439
vertex 0.160679 0.807790 -0.122439
vertex 0.315184 0.760921 -0.122439
endloop
endfacet
facet normal -0.955132 -0.289736 0.061445
outer loop
vertex 0.822647 0.163635 0.122439
vertex 0.774916 0.320981 0.122439
vertex 0.760921 0.315184 -0.122439
endloop
endfacet
facet normal -0.955132 -0.289737 0.061446
outer loop
vertex 0.822647 0.163635 0.122439
vertex 0.760921 0.315184 -0.122439
vertex 0.807790 0.160679 -0.122439
endloop
endfacet
facet normal -0.993304 -0.097832 0.061446
outer loop
vertex 0.838763 0.000000 0.122439
vertex 0.822647 0.163635 0.122439
vertex 0.807790 0.160679 -0.122439
endloop
endfacet
facet normal -0.993304 -0.097832 0.061446
outer loop
vertex 0.838763 0.000000 0.122439
vertex 0.807790 0.160679 -0.122439
vertex 0.823615 0.000000 -0.122439
endloop
endfacet
facet normal -0.993304 0.097832 0.061446
outer loop
vertex 0.822647 -0.163635 0.122439
vertex 0.838763 0.000000 0.122439
vertex 0.823615 0.000000 -0.122439
endloop
endfacet
facet normal -0.993304 0.097831 0.061446
outer loop
vertex 0.822647 -0.163635 0.122439
vertex 0.823615 0.000000 -0.122439
vertex 0.807790 -0.160679 -0.122439
endloop
endfacet
facet normal -0.955132 0.289737 0.061446
outer loop
vertex 0.774916 -0.320981 0.122439
vertex 0.822647 -0.163635 0.122439
vertex 0.807790 -0.160679 -0.122439
endloop
endfacet
facet normal -0.955132 0.289736 0.061445
outer loop
vertex 0.774916 -0.320981 0.122439
vertex 0.807790 -0.160679 -0.122439
vertex 0.760921 -0.315184 -0.122439
endloop
endfacet
facet normal -0.880255 0.470506 0.061445
outer loop
vertex 0.697406 -0.465992 0.122439
vertex 0.774916 -0.320981 0.122439
vertex 0.760921 -0.315184 -0.122439
endloop
endfacet
facet normal -0.880255 0.470506 0.061445
outer loop
vertex 0.697406 -0.465992 0.122439
vertex 0.760921 -0.315184 -0.122439
vertex 0.684811 -0.457576 -0.122439
endloop
endfacet
facet normal -0.771550 0.633194 0.061446
outer loop
vertex 0.593095 -0.593095 0.122439
vertex 0.697406 -0.465992 0.122439
vertex 0.684811 -0.457576 -0.122439
endloop
endfacet
facet normal -0.771549 0.633195 0.061445
outer loop
vertex 0.593095 -0.593095 0.122439
vertex 0.684811 -0.457576 -0.122439
vertex 0.582384 -0.582384 -0.122439
endloop
endfacet
facet normal -0.633194 0.771550 0.061445
outer loop
vertex 0.465992 -0.697406 0.122439
vertex 0.593095 -0.593095 0.122439
vertex 0.582384 -0.582384 -0.122439
endloop
endfacet
facet normal -0.633195 0.771550 0.061445
outer loop
vertex 0.465992 -0.697406 0.122439
vertex 0.582384 -0.582384 -0.122439
vertex 0.457576 -0.684811 -0.122439
endloop
endfacet
facet normal -0.470506 0.880255 0.061446
outer loop
vertex 0.320981 -0.774916 0.122439
vertex 0.465992 -0.697406 0.122439
vertex 0.457576 -0.684811 -0.122439
endloop
endfacet
facet normal -0.470506 0.880255 0.061446
outer loop
vertex 0.320981 -0.774916 0.122439
vertex 0.457576 -0.684811 -0.122439
vertex 0.315184 -0.760921 -0.122439
endloop
endfacet
facet normal -0.289736 0.955132 0.061446
outer loop
vertex 0.163635 -0.822647 0.122439
vertex 0.320981 -0.774916 0.122439
vertex 0.315184 -0.760921 -0.122439
endloop
endfacet
facet normal -0.289736 0.955132 0.061445
outer loop
vertex 0.163635 -0.822647 0.122439
vertex 0.315184 -0.760921 -0.122439
vertex 0.160679 -0.807790 -0.122439
endloop
endfacet
facet normal -0.289736 0.955132 0.061446
outer loop
vertex 0.163635 -0.822647 0.122439
vertex 0.320981 -0.774916 0.122439
vertex 0.315184 -0.760921 -0.122439
endloop
endfacet
facet normal -0.097832 0.993304 0.061446
outer loop
vertex 0.160679 -0.807790 -0.122439
vertex 0.000000 -0.823615 -0.122439
vertex 0.000000 -0.838763 0.122439
endloop
endfacet
facet normal -0.289736 0.955132 0.061445
outer loop
vertex 0.163635 -0.822647 0.122439
vertex 0.315184 -0.760921 -0.122439
vertex 0.160679 -0.807790 -0.122439
endloop
endfacet
facet normal -0.097832 0.993304 0.061445
outer loop
vertex 0.160679 -0.807790 -0.122439
vertex 0.000000 -0.838763 0.122439
vertex 0.163635 -0.822647 0.122439
endloop
endfacet
facet normal -0.097832 -0.993304 -0.061445
outer loop
vertex 0.000000 -0.838763 0.122439
vertex -0.163635 -0.822647 0.122439
vertex -0.160679 -0.807790 -0.122439
endloop
endfacet
facet normal -0.097832 -0.993304 -0.061446
outer loop
vertex 0.000000 -0.838763 0.122439
vertex -0.160679 -0.807790 -0.122439
vertex 0.000000 -0.823615 -0.122439
endloop
endfacet
facet normal 0.289736 0.955132 0.061445
outer loop
vertex -0.320981 -0.774916 0.122439
vertex -0.163635 -0.822647 0.122439
vertex -0.160679 -0.807790 -0.122439
endloop
endfacet
facet normal 0.289736 0.955132 0.061446
outer loop
vertex -0.320981 -0.774916 0.122439
vertex -0.160679 -0.807790 -0.122439
vertex -0.315184 -0.760921 -0.122439
endloop
endfacet
facet normal 0.470506 0.880255 0.061446
outer loop
vertex -0.465992 -0.697406 0.122439
vertex -0.320981 -0.774916 0.122439
vertex -0.315184 -0.760921 -0.122439
endloop
endfacet
facet normal 0.470506 0.880255 0.061446
outer loop
vertex -0.465992 -0.697406 0.122439
vertex -0.315184 -0.760921 -0.122439
vertex -0.457576 -0.684811 -0.122439
endloop
endfacet
facet normal 0.633194 0.771550 0.061445
outer loop
vertex -0.593095 -0.593095 0.122439
vertex -0.465992 -0.697406 0.122439
vertex -0.457576 -0.684811 -0.122439
endloop
endfacet
facet normal 0.633195 0.771550 0.061445
outer loop
vertex -0.593095 -0.593095 0.122439
vertex -0.457576 -0.684811 -0.122439
vertex -0.582384 -0.582384 -0.122439
endloop
endfacet
facet normal 0.771550 0.633195 0.061446
outer loop
vertex -0.697406 -0.465992 0.122439
vertex -0.593095 -0.593095 0.122439
vertex -0.582384 -0.582384 -0.122439
endloop
endfacet
facet normal 0.771550 0.633195 0.061445
outer loop
vertex -0.697406 -0.465992 0.122439
vertex -0.582384 -0.582384 -0.122439
vertex -0.684811 -0.457576 -0.122439
endloop
endfacet
facet normal 0.880255 0.470506 0.061445
outer loop
vertex -0.774916 -0.320981 0.122439
vertex -0.697406 -0.465992 0.122439
vertex -0.684811 -0.457576 -0.122439
endloop
endfacet
facet normal 0.880255 0.470506 0.061445
outer loop
vertex -0.774916 -0.320981 0.122439
vertex -0.684811 -0.457576 -0.122439
vertex -0.760921 -0.315184 -0.122439
endloop
endfacet
facet normal 0.955132 0.289736 0.061445
outer loop
vertex -0.822647 -0.163635 0.122439
vertex -0.774916 -0.320981 0.122439
vertex -0.760921 -0.315184 -0.122439
endloop
endfacet
facet normal 0.955132 0.289737 0.061446
outer loop
vertex -0.822647 -0.163635 0.122439
vertex -0.760921 -0.315184 -0.122439
vertex -0.807790 -0.160679 -0.122439
endloop
endfacet
facet normal 0.993304 0.097832 0.061446
outer loop
vertex -0.838763 0.000000 0.122439
vertex -0.822647 -0.163635 0.122439
vertex -0.807790 -0.160679 -0.122439
endloop
endfacet
facet normal 0.993304 0.097832 0.061446
outer loop
vertex -0.838763 0.000000 0.122439
vertex -0.807790 -0.160679 -0.122439
vertex -0.823615 0.000000 -0.122439
endloop
endfacet
facet normal 0.993304 -0.097832 0.061446
outer loop
vertex -0.822647 0.163635 0.122439
vertex -0.838763 0.000000 0.122439
vertex -0.823615 0.000000 -0.122439
endloop
endfacet
facet normal 0.993304 -0.097831 0.061446
outer loop
vertex -0.822647 0.163635 0.122439
vertex -0.823615 0.000000 -0.122439
vertex -0.807790 0.160679 -0.122439
endloop
endfacet
facet normal 0.955132 -0.289737 0.061446
outer loop
vertex -0.774916 0.320981 0.122439
vertex -0.822647 0.163635 0.122439
vertex -0.807790 0.160679 -0.122439
endloop
endfacet
facet normal 0.955132 -0.289736 0.061445
outer loop
vertex -0.774916 0.320981 0.122439
vertex -0.807790 0.160679 -0.122439
vertex -0.760921 0.315184 -0.122439
endloop
endfacet
facet normal 0.880255 -0.470506 0.061445
outer loop
vertex -0.697406 0.465992 0.122439
vertex -0.774916 0.320981 0.122439
vertex -0.760921 0.315184 -0.122439
endloop
endfacet
facet normal 0.880255 -0.470506 0.061445
outer loop
vertex -0.697406 0.465992 0.122439
vertex -0.760921 0.315184 -0.122439
vertex -0.684811 0.457576 -0.122439
endloop
endfacet
facet normal 0.771550 -0.633194 0.061446
outer loop
vertex -0.593095 0.593095 0.122439
vertex -0.697406 0.465992 0.122439
vertex -0.684811 0.457576 -0.122439
endloop
endfacet
facet normal 0.771549 -0.633195 0.061445
outer loop
vertex -0.593095 0.593095 0.122439
vertex -0.684811 0.457576 -0.122439
vertex -0.582384 0.582384 -0.122439
endloop
endfacet
facet normal 0.633194 -0.771550 0.061445
outer loop
vertex -0.465992 0.697406 0.122439
vertex -0.593095 0.593095 0.122439
vertex -0.582384 0.582384 -0.122439
endloop
endfacet
facet normal 0.633195 -0.771550 0.061445
outer loop
vertex -0.465992 0.697406 0.122439
vertex -0.582384 0.582384 -0.122439
vertex -0.457576 0.684811 -0.122439
endloop
endfacet
facet normal 0.470506 -0.880255 0.061446
outer loop
vertex -0.320981 0.774916 0.122439
vertex -0.465992 0.697406 0.122439
vertex -0.457576 0.684811 -0.122439
endloop
endfacet
facet normal 0.470506 -0.880255 0.061446
outer loop
vertex -0.320981 0.774916 0.122439
vertex -0.457576 0.684811 -0.122439
vertex -0.315184 0.760921 -0.122439
endloop
endfacet
facet normal 0.289736 -0.955132 0.061446
outer loop
vertex -0.163635 0.822647 0.122439
vertex -0.320981 0.774916 0.122439
vertex -0.315184 0.760921 -0.122439
endloop
endfacet
facet normal 0.289736 -0.955132 0.061445
outer loop
vertex -0.163635 0.822647 0.122439
vertex -0.315184 0.760921 -0.122439
vertex -0.160679 0.807790 -0.122439
endloop
endfacet
facet normal 0.097832 -0.993304 0.061445
outer loop
vertex 0.000000 0.838763 0.122439
vertex -0.163635 0.822647 0.122439
vertex -0.160679 0.807790 -0.122439
endloop
endfacet
facet normal 0.097832 -0.993304 0.061446
outer loop
vertex 0.000000 0.838763 0.122439
vertex -0.160679 0.807790 -0.122439
vertex 0.000000 0.823615 -0.122439
endloop
endfacet
facet normal -0.097832 -0.993304 0.061446
outer loop
vertex 0.163635 0.822647 0.122439
vertex 0.000000 0.838763 0.122439
vertex 0.000000 0.823615 -0.122439
endloop
endfacet
facet normal -0.097832 -0.993304 0.061445
outer loop
vertex 0.163635 0.822647 0.122439
vertex 0.000000 0.823615 -0.122439
vertex 0.160679 0.807790 -0.122439
endloop
endfacet
facet normal -0.999927 0.000000 -0.012067
outer loop
vertex -0.163635 -0.822647 0.122439
vertex -0.163635 0.822647 0.122439
vertex -0.160679 0.807790 -0.122439
endloop
endfacet
facet normal -0.999927 0.000000 -0.012067
outer loop
vertex -0.163635 -0.822647 0.122439
vertex -0.160679 0.807790 -0.122439
vertex -0.160679 -0.807790 -0.122439
endloop
endfacet
facet normal 0.999927 0.000000 -0.012067
outer loop
vertex 0.163635 -0.822647 0.122439
vertex 0.160679 -0.807790 -0.122439
vertex 0.160679 0.807790 -0.122439
endloop
endfacet
facet normal 0.999927 0.000000 -0.012067
outer loop
vertex 0.163635 -0.822647 0.122439
vertex 0.160679 0.807790 -0.122439
vertex 0.163635 0.822647 0.122439
endloop
endfacet
facet normal 0.000000 -0.999927 -0.012067
outer loop
vertex -0.822647 -0.163635 0.122439
vertex -0.807790 -0.160679 -0.122439
vertex 0.807790 -0.160679 -0.122439
endloop
endfacet
facet normal 0.000000 -0.999927 -0.012067
outer loop
vertex -0.822647 -0.163635 0.122439
vertex 0.807790 -0.160679 -0.122439
vertex 0.822647 -0.163635 0.122439
endloop
endfacet
facet normal 0.000000 0.999927 -0.012067
outer loop
vertex -0.822647 0.163635 0.122439
vertex 0.822647 0.163635 0.122439
vertex 0.807790 0.160679 -0.122439
endloop
endfacet
facet normal 0.000000 0.999927 -0.012067
outer loop
vertex -0.822647 0.163635 0.122439
vertex 0.807790 0.160679 -0.122439
vertex -0.807790 0.160679 -0.122439
endloop
endfacet
endsolid Exported from Blender-3.5.1
