solid Exported from Blender-3.5.1
facet normal 0.000000 0.000000 1.000000
outer loop
vertex 1.846087 1.846087 0.110989
vertex 1.093830 1.846087 0.110989
vertex 1.093830 1.413745 0.110989
endloop
endfacet
facet normal 0.000000 0.000000 1.000000
outer loop
vertex 1.846087 1.846087 0.110989
vertex 1.093830 1.413745 0.110989
vertex 1.846087 1.413745 0.110989
endloop
endfacet
facet normal 0.000000 0.000000 1.000000
outer loop
vertex 1.093830 -1.846087 0.110989
vertex -0.667237 -1.846087 0.110989
vertex -0.667237 -2.076021 0.110989
endloop
endfacet
facet normal 0.000000 0.000000 1.000000
outer loop
vertex 1.093830 -1.846087 0.110989
vertex -0.667237 -2.076021 0.110989
vertex 1.093830 -2.076021 0.110989
endloop
endfacet
facet normal -1.000000 0.000000 0.000000
outer loop
vertex -1.846087 -1.846087 -0.110989
vertex -1.846087 -1.846087 0.110989
vertex -1.846087 1.846087 0.110989
endloop
endfacet
facet normal -1.000000 0.000000 0.000000
outer loop
vertex -1.846087 -1.846087 -0.110989
vertex -1.846087 1.846087 0.110989
vertex -1.846087 1.846087 -0.110989
endloop
endfacet
facet normal 0.000000 0.000000 -1.000000
outer loop
vertex -1.846087 1.846087 -0.110989
vertex 1.846087 1.846087 -0.110989
vertex 1.846087 -1.846087 -0.110989
endloop
endfacet
facet normal 0.000000 0.000000 -1.000000
outer loop
vertex -1.846087 1.846087 -0.110989
vertex 1.846087 -1.846087 -0.110989
vertex -1.846087 -1.846087 -0.110989
endloop
endfacet
facet normal 1.000000 0.000000 0.000000
outer loop
vertex 1.846087 -1.846087 -0.110989
vertex 1.846087 1.846087 -0.110989
vertex 1.846087 1.846087 0.110989
endloop
endfacet
facet normal 1.000000 0.000000 0.000000
outer loop
vertex 1.846087 -1.846087 -0.110989
vertex 1.846087 1.846087 0.110989
vertex 1.846087 1.413745 0.110989
endloop
endfacet
facet normal 1.000000 0.000000 0.000000
outer loop
vertex 1.846087 -0.511345 0.110989
vertex 1.846087 -1.846087 0.110989
vertex 1.846087 -1.846087 -0.110989
endloop
endfacet
facet normal 1.000000 0.000000 0.000000
outer loop
vertex 1.846087 0.401946 0.110989
vertex 1.846087 -0.511345 0.110989
vertex 1.846087 -1.846087 -0.110989
endloop
endfacet
facet normal 1.000000 0.000000 0.000000
outer loop
vertex 1.846087 -1.846087 -0.110989
vertex 1.846087 1.413745 0.110989
vertex 1.846087 0.631697 0.110989
endloop
endfacet
facet normal 1.000000 0.000000 0.000000
outer loop
vertex 1.846087 0.631697 0.110989
vertex 1.846087 0.401946 0.110989
vertex 1.846087 -1.846087 -0.110989
endloop
endfacet
facet normal 0.000000 1.000000 0.000000
outer loop
vertex 1.846087 1.846087 -0.110989
vertex -1.846087 1.846087 -0.110989
vertex -1.846087 1.846087 0.110989
endloop
endfacet
facet normal 0.000000 1.000000 0.000004
outer loop
vertex 1.846087 1.846087 -0.110989
vertex -1.846087 1.846087 0.110989
vertex -1.312596 1.846087 0.110989
endloop
endfacet
facet normal 0.000000 1.000000 0.000000
outer loop
vertex 1.093830 1.846087 0.110989
vertex 1.846087 1.846087 0.110989
vertex 1.846087 1.846087 -0.110989
endloop
endfacet
facet normal 0.000000 1.000000 -0.000005
outer loop
vertex 1.846087 1.846087 -0.110989
vertex -1.312596 1.846087 0.110989
vertex -0.667236 1.846087 0.110989
endloop
endfacet
facet normal 0.000000 1.000000 0.000002
outer loop
vertex -0.667236 1.846087 0.110989
vertex 1.093830 1.846087 0.110989
vertex 1.846087 1.846087 -0.110989
endloop
endfacet
facet normal 0.000000 0.000000 1.000000
outer loop
vertex -1.846087 -1.846087 0.110989
vertex -1.317978 -1.846087 0.110989
vertex -1.316032 -0.511345 0.110989
endloop
endfacet
facet normal -0.723869 0.000000 0.689937
outer loop
vertex -1.314701 0.401946 0.110989
vertex -1.314366 0.631697 0.110989
vertex -1.313227 1.413745 0.110989
endloop
endfacet
facet normal 0.000000 0.000000 1.000000
outer loop
vertex -1.846087 -1.846087 0.110989
vertex -1.316032 -0.511345 0.110989
vertex -1.314701 0.401946 0.110989
endloop
endfacet
facet normal 0.000000 0.000000 1.000000
outer loop
vertex -1.312596 1.846087 0.110989
vertex -1.846087 1.846087 0.110989
vertex -1.846087 -1.846087 0.110989
endloop
endfacet
facet normal -0.000000 0.000000 1.000000
outer loop
vertex -1.846087 -1.846087 0.110989
vertex -1.314701 0.401946 0.110989
vertex -1.313227 1.413745 0.110989
endloop
endfacet
facet normal 0.000000 0.000000 1.000000
outer loop
vertex -1.313227 1.413745 0.110989
vertex -1.312596 1.846087 0.110989
vertex -1.846087 -1.846087 0.110989
endloop
endfacet
facet normal 0.000000 0.000000 1.000000
outer loop
vertex -1.314366 0.631697 1.946667
vertex -0.667236 0.631697 1.946667
vertex -0.667237 1.413745 1.946667
endloop
endfacet
facet normal 0.000000 0.000000 1.000000
outer loop
vertex -1.314366 0.631697 1.946667
vertex -0.667237 1.413745 1.946667
vertex -1.313227 1.413745 1.946667
endloop
endfacet
facet normal 0.000000 0.000000 1.000000
outer loop
vertex 1.846087 1.413745 0.110989
vertex 1.093830 1.413745 0.110989
vertex 1.093830 0.631697 0.110989
endloop
endfacet
facet normal 0.000000 0.000000 1.000000
outer loop
vertex 1.846087 1.413745 0.110989
vertex 1.093830 0.631697 0.110989
vertex 1.846087 0.631697 0.110989
endloop
endfacet
facet normal 0.000000 0.000000 1.000000
outer loop
vertex 1.846087 0.631697 0.110989
vertex 1.093830 0.631697 0.110989
vertex 1.093830 0.401946 0.110989
endloop
endfacet
facet normal -0.000000 0.000000 1.000000
outer loop
vertex 1.846087 0.631697 0.110989
vertex 1.093830 0.401946 0.110989
vertex 1.846087 0.401946 0.110989
endloop
endfacet
facet normal 0.000000 1.000000 0.000000
outer loop
vertex 1.846087 0.401946 0.110989
vertex 1.093830 0.401946 0.110989
vertex 1.093830 0.401946 2.383504
endloop
endfacet
facet normal 0.000000 1.000000 0.000000
outer loop
vertex 1.846087 0.401946 0.110989
vertex 1.093830 0.401946 2.383504
vertex 1.846087 0.401946 2.383504
endloop
endfacet
facet normal -0.000000 0.000000 1.000000
outer loop
vertex 1.846087 -0.511345 0.110989
vertex 1.093831 -0.511345 0.110989
vertex 1.093830 -1.846087 0.110989
endloop
endfacet
facet normal 0.000000 0.000000 1.000000
outer loop
vertex 1.846087 -0.511345 0.110989
vertex 1.093830 -1.846087 0.110989
vertex 1.846087 -1.846087 0.110989
endloop
endfacet
facet normal 0.000000 0.000000 1.000000
outer loop
vertex 1.093830 -1.846087 0.110989
vertex 1.093831 -0.511345 0.110989
vertex -0.667236 -0.511345 0.110989
endloop
endfacet
facet normal 0.000000 0.000000 1.000000
outer loop
vertex 1.093830 -1.846087 0.110989
vertex -0.667236 -0.511345 0.110989
vertex -0.667237 -1.846087 0.110989
endloop
endfacet
facet normal 0.000000 1.000000 0.000000
outer loop
vertex -0.667236 -0.511345 0.110989
vertex -1.316032 -0.511345 0.110989
vertex -1.316032 -0.511345 2.412206
endloop
endfacet
facet normal 0.000000 1.000000 0.000000
outer loop
vertex -0.667236 -0.511345 0.110989
vertex -1.316032 -0.511345 2.412206
vertex -0.667236 -0.511345 2.412206
endloop
endfacet
facet normal -0.999999 0.001458 0.000000
outer loop
vertex -1.314701 0.401946 0.110989
vertex -1.316032 -0.511345 0.110989
vertex -1.316032 -0.511345 1.486864
endloop
endfacet
facet normal -0.999999 0.001457 0.000000
outer loop
vertex -1.314701 0.401946 0.110989
vertex -1.316032 -0.511345 1.486864
vertex -1.314701 0.401946 1.486864
endloop
endfacet
facet normal -0.000000 -1.000000 0.000000
outer loop
vertex -1.314701 0.401946 0.110989
vertex -0.667237 0.401946 0.110989
vertex -0.667237 0.401946 1.307625
endloop
endfacet
facet normal -0.000000 -1.000000 0.000000
outer loop
vertex -1.314701 0.401946 0.110989
vertex -0.667237 0.401946 1.307625
vertex -1.314701 0.401946 1.307625
endloop
endfacet
facet normal -0.999999 0.001457 0.000000
outer loop
vertex -1.313227 1.413745 0.110989
vertex -1.314366 0.631697 0.110989
vertex -1.314366 0.631697 1.946667
endloop
endfacet
facet normal -0.999999 0.001457 0.000000
outer loop
vertex -1.313227 1.413745 0.110989
vertex -1.314366 0.631697 1.946667
vertex -1.313227 1.413745 1.946667
endloop
endfacet
facet normal 0.000000 0.000000 1.000000
outer loop
vertex -1.313227 1.413745 0.110989
vertex -0.667237 1.413745 0.110989
vertex -0.667236 1.846087 0.110989
endloop
endfacet
facet normal 0.000000 0.000000 1.000000
outer loop
vertex -1.313227 1.413745 0.110989
vertex -0.667236 1.846087 0.110989
vertex -1.312596 1.846087 0.110989
endloop
endfacet
facet normal 0.000000 0.000000 1.000000
outer loop
vertex -0.667236 1.846087 0.110989
vertex -0.667237 1.413745 0.110989
vertex 1.093830 1.413745 0.110989
endloop
endfacet
facet normal 0.000000 0.000000 1.000000
outer loop
vertex -0.667236 1.846087 0.110989
vertex 1.093830 1.413745 0.110989
vertex 1.093830 1.846087 0.110989
endloop
endfacet
facet normal 1.000000 -0.000000 0.000000
outer loop
vertex 1.093830 0.631697 0.110989
vertex 1.093830 1.413745 0.110989
vertex 1.093830 1.413745 1.453065
endloop
endfacet
facet normal 1.000000 -0.000000 0.000000
outer loop
vertex 1.093830 0.631697 0.110989
vertex 1.093830 1.413745 1.453065
vertex 1.093830 0.631697 1.453065
endloop
endfacet
facet normal -0.000000 -1.000000 0.000000
outer loop
vertex -0.667237 0.401946 0.110989
vertex 1.093830 0.401946 0.110989
vertex 1.093830 0.401946 0.876898
endloop
endfacet
facet normal -0.000000 -1.000000 0.000000
outer loop
vertex -0.667237 0.401946 0.110989
vertex 1.093830 0.401946 0.876898
vertex -0.667237 0.401946 0.876898
endloop
endfacet
facet normal -0.000000 0.000000 1.000000
outer loop
vertex -0.667237 0.401946 0.110989
vertex -0.667236 -0.511345 0.110989
vertex 1.093831 -0.511345 0.110989
endloop
endfacet
facet normal 0.000000 0.000000 1.000000
outer loop
vertex -0.667237 0.401946 0.110989
vertex 1.093831 -0.511345 0.110989
vertex 1.093830 0.401946 0.110989
endloop
endfacet
facet normal 0.000000 -1.000000 0.000000
outer loop
vertex -1.314366 0.631697 0.110989
vertex -0.667236 0.631697 0.110989
vertex -0.667236 0.631697 1.946667
endloop
endfacet
facet normal 0.000000 -1.000000 0.000000
outer loop
vertex -1.314366 0.631697 0.110989
vertex -0.667236 0.631697 1.946667
vertex -1.314366 0.631697 1.946667
endloop
endfacet
facet normal 0.000000 1.000000 0.000000
outer loop
vertex -0.667237 1.413745 0.110989
vertex -1.313227 1.413745 0.110989
vertex -1.313227 1.413745 1.946667
endloop
endfacet
facet normal 0.000000 1.000000 0.000000
outer loop
vertex -0.667237 1.413745 0.110989
vertex -1.313227 1.413745 1.946667
vertex -0.667237 1.413745 1.946667
endloop
endfacet
facet normal 1.000000 0.000000 0.000000
outer loop
vertex -0.667236 0.631697 0.110989
vertex -0.667237 1.413745 0.110989
vertex -0.667237 1.413745 1.946667
endloop
endfacet
facet normal 1.000000 0.000000 0.000000
outer loop
vertex -0.667236 0.631697 0.110989
vertex -0.667237 1.413745 1.946667
vertex -0.667236 0.631697 1.946667
endloop
endfacet
facet normal 0.000000 0.000000 1.000000
outer loop
vertex -1.314701 0.401946 1.307625
vertex -0.667237 0.401946 1.307625
vertex -0.667236 0.631697 1.307625
endloop
endfacet
facet normal 0.000000 0.000000 1.000000
outer loop
vertex -1.314701 0.401946 1.307625
vertex -0.667236 0.631697 1.307625
vertex -1.314366 0.631697 1.307625
endloop
endfacet
facet normal 0.000000 1.000000 0.000000
outer loop
vertex -0.667236 0.631697 0.110989
vertex -1.314366 0.631697 0.110989
vertex -1.314366 0.631697 1.307625
endloop
endfacet
facet normal 0.000000 1.000000 0.000000
outer loop
vertex -0.667236 0.631697 0.110989
vertex -1.314366 0.631697 1.307625
vertex -0.667236 0.631697 1.307625
endloop
endfacet
facet normal -0.999999 0.001457 0.000000
outer loop
vertex -1.314366 0.631697 0.110989
vertex -1.314701 0.401946 0.110989
vertex -1.314701 0.401946 1.307625
endloop
endfacet
facet normal -0.999999 0.001458 0.000000
outer loop
vertex -1.314366 0.631697 0.110989
vertex -1.314701 0.401946 1.307625
vertex -1.314366 0.631697 1.307625
endloop
endfacet
facet normal 1.000000 -0.000001 0.000000
outer loop
vertex -0.667237 0.401946 0.110989
vertex -0.667236 0.631697 0.110989
vertex -0.667236 0.631697 1.307625
endloop
endfacet
facet normal 1.000000 -0.000001 0.000000
outer loop
vertex -0.667237 0.401946 0.110989
vertex -0.667236 0.631697 1.307625
vertex -0.667237 0.401946 1.307625
endloop
endfacet
facet normal 0.000000 0.000000 1.000000
outer loop
vertex -0.667237 1.413745 1.453065
vertex -0.667236 0.631697 1.453065
vertex 1.093830 0.631697 1.453065
endloop
endfacet
facet normal 0.000000 0.000000 1.000000
outer loop
vertex -0.667237 1.413745 1.453065
vertex 1.093830 0.631697 1.453065
vertex 1.093830 1.413745 1.453065
endloop
endfacet
facet normal 0.000000 -1.000000 0.000000
outer loop
vertex -0.667236 0.631697 0.110989
vertex 1.093830 0.631697 0.110989
vertex 1.093830 0.631697 1.453065
endloop
endfacet
facet normal 0.000000 -1.000000 0.000000
outer loop
vertex -0.667236 0.631697 0.110989
vertex 1.093830 0.631697 1.453065
vertex -0.667236 0.631697 1.453065
endloop
endfacet
facet normal 0.000000 1.000000 0.000000
outer loop
vertex 1.093830 1.413745 0.110989
vertex -0.667237 1.413745 0.110989
vertex -0.667237 1.413745 1.453065
endloop
endfacet
facet normal 0.000000 1.000000 0.000000
outer loop
vertex 1.093830 1.413745 0.110989
vertex -0.667237 1.413745 1.453065
vertex 1.093830 1.413745 1.453065
endloop
endfacet
facet normal -1.000000 -0.000000 0.000000
outer loop
vertex -0.667237 1.413745 0.110989
vertex -0.667236 0.631697 0.110989
vertex -0.667236 0.631697 1.453065
endloop
endfacet
facet normal -1.000000 -0.000000 0.000000
outer loop
vertex -0.667237 1.413745 0.110989
vertex -0.667236 0.631697 1.453065
vertex -0.667237 1.413745 1.453065
endloop
endfacet
facet normal 0.000000 0.000000 1.000000
outer loop
vertex -0.667236 0.631697 0.876898
vertex -0.667237 0.401946 0.876898
vertex 1.093830 0.401946 0.876898
endloop
endfacet
facet normal 0.000000 0.000000 1.000000
outer loop
vertex -0.667236 0.631697 0.876898
vertex 1.093830 0.401946 0.876898
vertex 1.093830 0.631697 0.876898
endloop
endfacet
facet normal 0.000000 1.000000 0.000000
outer loop
vertex 1.093830 0.631697 0.110989
vertex -0.667236 0.631697 0.110989
vertex -0.667236 0.631697 0.876898
endloop
endfacet
facet normal 0.000000 1.000000 0.000000
outer loop
vertex 1.093830 0.631697 0.110989
vertex -0.667236 0.631697 0.876898
vertex 1.093830 0.631697 0.876898
endloop
endfacet
facet normal -1.000000 0.000001 0.000000
outer loop
vertex -0.667236 0.631697 0.110989
vertex -0.667237 0.401946 0.110989
vertex -0.667237 0.401946 0.876898
endloop
endfacet
facet normal -1.000000 0.000001 0.000000
outer loop
vertex -0.667236 0.631697 0.110989
vertex -0.667237 0.401946 0.876898
vertex -0.667236 0.631697 0.876898
endloop
endfacet
facet normal 1.000000 0.000001 0.000000
outer loop
vertex 1.093830 0.401946 0.110989
vertex 1.093830 0.631697 0.110989
vertex 1.093830 0.631697 0.876898
endloop
endfacet
facet normal 1.000000 0.000001 0.000000
outer loop
vertex 1.093830 0.401946 0.110989
vertex 1.093830 0.631697 0.876898
vertex 1.093830 0.401946 0.876898
endloop
endfacet
facet normal 0.000000 0.000000 1.000000
outer loop
vertex -1.316032 -0.511345 1.486864
vertex -0.667236 -0.511345 1.486864
vertex -0.667237 0.401946 1.486864
endloop
endfacet
facet normal -0.000000 0.000000 1.000000
outer loop
vertex -1.316032 -0.511345 1.486864
vertex -0.667237 0.401946 1.486864
vertex -1.314701 0.401946 1.486864
endloop
endfacet
facet normal -0.000000 -1.000000 0.000000
outer loop
vertex -1.316032 -0.511345 0.110989
vertex -0.667236 -0.511345 0.110989
vertex -0.667236 -0.511345 1.486864
endloop
endfacet
facet normal -0.000000 -1.000000 0.000000
outer loop
vertex -1.316032 -0.511345 0.110989
vertex -0.667236 -0.511345 1.486864
vertex -1.316032 -0.511345 1.486864
endloop
endfacet
facet normal 0.000000 1.000000 0.000000
outer loop
vertex -0.667237 0.401946 0.110989
vertex -1.314701 0.401946 0.110989
vertex -1.314701 0.401946 1.486864
endloop
endfacet
facet normal 0.000000 1.000000 0.000000
outer loop
vertex -0.667237 0.401946 0.110989
vertex -1.314701 0.401946 1.486864
vertex -0.667237 0.401946 1.486864
endloop
endfacet
facet normal 1.000000 0.000000 0.000000
outer loop
vertex -0.667236 -0.511345 0.110989
vertex -0.667237 0.401946 0.110989
vertex -0.667237 0.401946 1.486864
endloop
endfacet
facet normal 1.000000 0.000000 0.000000
outer loop
vertex -0.667236 -0.511345 0.110989
vertex -0.667237 0.401946 1.486864
vertex -0.667236 -0.511345 1.486864
endloop
endfacet
facet normal -0.000000 0.000000 1.000000
outer loop
vertex -0.667237 -1.846087 2.412206
vertex -0.667236 -0.511345 2.412206
vertex -1.316032 -0.511345 2.412206
endloop
endfacet
facet normal 0.000000 0.000000 1.000000
outer loop
vertex -0.667237 -1.846087 2.412206
vertex -1.316032 -0.511345 2.412206
vertex -1.317978 -1.846087 2.412206
endloop
endfacet
facet normal -0.999999 0.001458 0.000000
outer loop
vertex -1.316032 -0.511345 0.110989
vertex -1.317978 -1.846087 0.110989
vertex -1.317978 -1.846087 2.412206
endloop
endfacet
facet normal -0.999999 0.001458 0.000000
outer loop
vertex -1.316032 -0.511345 0.110989
vertex -1.317978 -1.846087 2.412206
vertex -1.316032 -0.511345 2.412206
endloop
endfacet
facet normal 1.000000 -0.000000 0.000000
outer loop
vertex -0.667237 -1.846087 0.110989
vertex -0.667236 -0.511345 0.110989
vertex -0.667236 -0.511345 2.412206
endloop
endfacet
facet normal 1.000000 -0.000000 0.000000
outer loop
vertex -0.667237 -1.846087 0.110989
vertex -0.667236 -0.511345 2.412206
vertex -0.667237 -1.846087 2.412206
endloop
endfacet
facet normal 0.000000 -1.000000 0.000000
outer loop
vertex -1.317978 -1.846087 0.110989
vertex -0.667237 -1.846087 0.110989
vertex -0.667237 -1.846087 2.412206
endloop
endfacet
facet normal 0.000000 -1.000000 0.000000
outer loop
vertex -1.317978 -1.846087 0.110989
vertex -0.667237 -1.846087 2.412206
vertex -1.317978 -1.846087 2.412206
endloop
endfacet
facet normal 0.000000 0.000000 1.000000
outer loop
vertex 1.846087 0.401946 2.383504
vertex 1.093830 0.401946 2.383504
vertex 1.093831 -0.511345 2.383504
endloop
endfacet
facet normal 0.000000 0.000000 1.000000
outer loop
vertex 1.846087 0.401946 2.383504
vertex 1.093831 -0.511345 2.383504
vertex 1.846087 -0.511345 2.383504
endloop
endfacet
facet normal -0.000000 -1.000000 0.000000
outer loop
vertex 1.093831 -0.511345 0.110989
vertex 1.846087 -0.511345 0.110989
vertex 1.846087 -0.511345 2.383504
endloop
endfacet
facet normal -0.000000 -1.000000 0.000000
outer loop
vertex 1.093831 -0.511345 0.110989
vertex 1.846087 -0.511345 2.383504
vertex 1.093831 -0.511345 2.383504
endloop
endfacet
facet normal 1.000000 0.000000 0.000000
outer loop
vertex 1.846087 -0.511345 0.110989
vertex 1.846087 0.401946 0.110989
vertex 1.846087 0.401946 2.383504
endloop
endfacet
facet normal 1.000000 0.000000 0.000000
outer loop
vertex 1.846087 -0.511345 0.110989
vertex 1.846087 0.401946 2.383504
vertex 1.846087 -0.511345 2.383504
endloop
endfacet
facet normal -1.000000 -0.000000 0.000000
outer loop
vertex 1.093830 0.401946 0.110989
vertex 1.093831 -0.511345 0.110989
vertex 1.093831 -0.511345 2.383504
endloop
endfacet
facet normal -1.000000 -0.000000 0.000000
outer loop
vertex 1.093830 0.401946 0.110989
vertex 1.093831 -0.511345 2.383504
vertex 1.093830 0.401946 2.383504
endloop
endfacet
facet normal 0.000000 -1.000000 0.000000
outer loop
vertex -1.846087 -2.076021 -0.110989
vertex 1.846087 -2.076021 -0.110989
vertex 1.846087 -2.076021 0.110989
endloop
endfacet
facet normal 0.000000 -1.000000 -0.000004
outer loop
vertex -1.846087 -2.076021 -0.110989
vertex 1.846087 -2.076021 0.110989
vertex 1.093830 -2.076021 0.110989
endloop
endfacet
facet normal 0.000000 -1.000000 0.000000
outer loop
vertex -1.317978 -2.076021 0.110989
vertex -1.846087 -2.076021 0.110989
vertex -1.846087 -2.076021 -0.110989
endloop
endfacet
facet normal 0.000000 -1.000000 0.000002
outer loop
vertex -1.846087 -2.076021 -0.110989
vertex 1.093830 -2.076021 0.110989
vertex -0.667237 -2.076021 0.110989
endloop
endfacet
facet normal 0.000000 -1.000000 -0.000002
outer loop
vertex -0.667237 -2.076021 0.110989
vertex -1.317978 -2.076021 0.110989
vertex -1.846087 -2.076021 -0.110989
endloop
endfacet
facet normal -1.000000 0.000000 0.000000
outer loop
vertex -1.846087 -1.846087 0.110989
vertex -1.846087 -1.846087 -0.110989
vertex -1.846087 -2.076021 -0.110989
endloop
endfacet
facet normal -1.000000 0.000000 0.000000
outer loop
vertex -1.846087 -1.846087 0.110989
vertex -1.846087 -2.076021 -0.110989
vertex -1.846087 -2.076021 0.110989
endloop
endfacet
facet normal 0.000000 0.000000 -1.000000
outer loop
vertex -1.846087 -1.846087 -0.110989
vertex 1.846087 -1.846087 -0.110989
vertex 1.846087 -2.076021 -0.110989
endloop
endfacet
facet normal 0.000000 0.000000 -1.000000
outer loop
vertex -1.846087 -1.846087 -0.110989
vertex 1.846087 -2.076021 -0.110989
vertex -1.846087 -2.076021 -0.110989
endloop
endfacet
facet normal 0.000000 0.000000 1.000000
outer loop
vertex -1.317978 -1.846087 0.110989
vertex -1.846087 -1.846087 0.110989
vertex -1.846087 -2.076021 0.110989
endloop
endfacet
facet normal 0.000000 0.000000 1.000000
outer loop
vertex -1.317978 -1.846087 0.110989
vertex -1.846087 -2.076021 0.110989
vertex -1.317978 -2.076021 0.110989
endloop
endfacet
facet normal 0.000000 0.000000 1.000000
outer loop
vertex 1.846087 -1.846087 0.110989
vertex 1.093830 -1.846087 0.110989
vertex 1.093830 -2.076021 0.110989
endloop
endfacet
facet normal 0.000000 0.000000 1.000000
outer loop
vertex 1.846087 -1.846087 0.110989
vertex 1.093830 -2.076021 0.110989
vertex 1.846087 -2.076021 0.110989
endloop
endfacet
facet normal 1.000000 0.000000 0.000000
outer loop
vertex 1.846087 -1.846087 -0.110989
vertex 1.846087 -1.846087 0.110989
vertex 1.846087 -2.076021 0.110989
endloop
endfacet
facet normal 1.000000 0.000000 0.000000
outer loop
vertex 1.846087 -1.846087 -0.110989
vertex 1.846087 -2.076021 0.110989
vertex 1.846087 -2.076021 -0.110989
endloop
endfacet
facet normal 0.000000 0.000000 1.000000
outer loop
vertex -0.667237 -1.846087 0.110989
vertex -1.317978 -1.846087 0.110989
vertex -1.317978 -2.076021 0.110989
endloop
endfacet
facet normal 0.000000 0.000000 1.000000
outer loop
vertex -0.667237 -1.846087 0.110989
vertex -1.317978 -2.076021 0.110989
vertex -0.667237 -2.076021 0.110989
endloop
endfacet
endsolid Exported from Blender-3.5.1
